<svg width="45" height="45" viewBox="0 0 45 45" fill="none" xmlns="http://www.w3.org/2000/svg">
<g clip-path="url(#clip0_3868_8)">
<path d="M44.3408 43.6816H39.0234V34.6624C42.3741 34.2912 45 31.1229 45 27.2812C45 23.5029 42.4593 20.3775 39.1879 19.9224C39.841 19.1032 40.2873 18.1185 40.4583 17.0486C40.5157 16.6891 40.2709 16.3511 39.9114 16.2936C39.5507 16.2368 39.2138 16.4811 39.1564 16.8405C38.8765 18.5929 37.6521 20.0498 36.0041 20.6468C35.6106 20.7894 35.3173 21.1322 35.2383 21.5414C35.1158 22.1761 34.6695 23.7295 33.1754 24.4446C31.8862 25.0616 30.6214 24.6834 30.1383 24.4924C29.3249 24.1695 28.7802 23.6421 28.4428 23.2066V20.3579L31.3225 17.4784C31.58 17.2209 31.58 16.8035 31.3225 16.5461C31.065 16.2889 30.6476 16.2887 30.3904 16.5461L28.4429 18.4935V14.1291C28.4429 13.765 28.1479 13.4699 27.7837 13.4699C27.4196 13.4699 27.1245 13.765 27.1245 14.1291V17.2284L25.1771 15.281C24.9196 15.0237 24.5023 15.0237 24.2449 15.281C23.9875 15.5385 23.9875 15.9558 24.2449 16.2133L27.1246 19.093V23.207C26.7859 23.6431 26.2404 24.1704 25.4298 24.4922C24.9458 24.6835 23.6812 25.0617 22.3922 24.4448C21.7679 24.1457 21.2643 23.6696 20.89 23.0324C21.0047 20.1189 20.1623 15.8608 18.9098 11.7804C19.0806 11.688 19.2567 11.6047 19.4375 11.5332C20.0246 11.3024 20.3817 10.7075 20.3062 10.0884C20.2922 9.97066 20.2853 9.85676 20.2853 9.74021C20.2853 8.40252 21.1911 7.2443 22.488 6.92332C23.1121 6.7689 23.5478 6.20859 23.5478 5.55398C23.5478 3.21855 25.4482 1.31854 27.7842 1.31854C30.1195 1.31854 32.0195 3.21855 32.0195 5.56102C32.0195 6.20868 32.4553 6.7689 33.0794 6.92341C34.5014 7.27541 35.4379 8.6364 35.2614 10.0869C35.186 10.7071 35.5428 11.3017 36.1296 11.5331C37.3634 12.0187 38.3584 13.0013 38.8593 14.2288C38.9985 14.5699 39.3884 14.7248 39.7186 14.5901C40.0557 14.4526 40.2174 14.0679 40.0799 13.7308C39.4436 12.1714 38.1798 10.9233 36.6129 10.3065C36.5865 10.2961 36.5672 10.2691 36.5703 10.2449C36.8346 8.11538 35.4432 6.15146 33.3962 5.64363C33.3629 5.63537 33.338 5.59986 33.338 5.55398C33.3378 2.49144 30.8464 0 27.784 0C24.7211 0 22.2293 2.49144 22.2293 5.56084C22.2293 5.59969 22.2043 5.63528 22.1713 5.64346C20.2845 6.11024 18.9668 7.79484 18.9668 9.74004C18.9668 9.90686 18.9769 10.0765 18.9972 10.2461C19.0108 10.3602 18.5912 10.455 18.4994 10.51C18.3353 10.0245 18.1658 9.54694 17.9909 9.08253C15.1642 1.57579 12.3302 0 10.4505 0C7.17012 0 4.66146 4.62208 3.13453 8.49955C3.00111 8.83828 3.16758 9.22104 3.50631 9.35446C3.84486 9.48797 4.2278 9.32142 4.36122 8.98269C6.27926 4.11188 8.49867 1.31836 10.4505 1.31836C12.4893 1.31836 14.7879 4.31763 16.7571 9.54712C18.612 14.4735 19.5826 19.7943 19.5826 22.5042C19.5826 27.9263 15.8385 32.3815 11.1096 32.7633V27.4138C11.1096 27.4135 11.1096 27.4132 11.1096 27.4129V24.8925L13.8607 22.1414C14.1181 21.8839 14.1181 21.4666 13.8607 21.2092C13.6032 20.9518 13.1859 20.9518 12.9284 21.2092L11.1097 23.0279V20.2715C11.1097 19.9074 10.8147 19.6124 10.4505 19.6124C10.0864 19.6124 9.79137 19.9074 9.79137 20.2715V24.619V24.6198V25.8219L7.97256 24.0031C7.71504 23.7458 7.29773 23.7458 7.0403 24.0031C6.78287 24.2606 6.78287 24.6779 7.0403 24.9354L9.79137 27.6864V32.7633C5.06241 32.3815 1.31836 27.9263 1.31836 22.5042C1.31836 19.957 2.13759 15.6642 3.35698 11.8223C3.46711 11.4754 3.27507 11.1047 2.92808 10.9946C2.58161 10.8847 2.21063 11.0766 2.10041 11.4235C0.824502 15.4436 0 19.7931 0 22.5042C0 28.657 4.33485 33.7058 9.79128 34.0849V43.6816H0.65918C0.295049 43.6816 0 43.9767 0 44.3408C0 44.705 0.295049 45 0.65918 45H44.3408C44.705 45 45 44.705 45 44.3408C45 43.9767 44.705 43.6816 44.3408 43.6816ZM27.1245 43.6816H11.1096V34.0849C15.849 33.7556 19.7416 29.903 20.6829 24.8643C21.0214 25.1746 21.4016 25.4319 21.8225 25.6337C23.5797 26.4749 25.2694 25.9728 25.9152 25.7177C26.3839 25.5316 26.7834 25.2942 27.1245 25.0387V43.6816ZM37.7051 43.6816H28.4428V25.0392C28.7837 25.2944 29.1833 25.5317 29.6528 25.718C30.0299 25.8671 30.7643 26.1007 31.6607 26.1007C31.7111 26.1007 31.7285 26.8831 31.7285 27.2813C31.7285 31.1229 34.3544 34.2913 37.7051 34.6625V43.6816ZM38.3643 26.8262C38.0001 26.8262 37.7051 27.1213 37.7051 27.4854V31.1089V31.1098V33.3323C35.0832 32.9585 33.0469 30.3884 33.0469 27.2812C33.0469 26.798 33.0969 26.3203 33.1942 25.8561C35.2125 25.1801 36.3715 22.8143 36.5186 21.8623C36.9657 21.6947 37.3859 21.478 37.7742 21.2199C40.9752 20.8073 43.6816 23.7141 43.6816 27.2812C43.6816 30.3884 41.6453 32.9585 39.0234 33.3323V31.3824L41.1077 29.2982C41.3651 29.0406 41.3651 28.6233 41.1077 28.3659C40.8502 28.1086 40.4329 28.1086 40.1754 28.3659L39.0234 29.5179V27.4854C39.0234 27.1213 38.7284 26.8262 38.3643 26.8262Z" fill="#77B80F"/>
</g>
<defs>
<clipPath id="clip0_3868_8">
<rect width="45" height="45" fill="white"/>
</clipPath>
</defs>
</svg>
