<svg width="45" height="45" viewBox="0 0 45 45" fill="none" xmlns="http://www.w3.org/2000/svg">
<g clip-path="url(#clip0_3868_32)">
<path d="M43.5495 6.67562C43.234 6.45431 42.802 6.15135 42.7239 5.96336C42.6368 5.75374 42.7246 5.23589 42.7953 4.81982C42.9312 4.01834 43.0854 3.11 42.4877 2.51234C41.89 1.9146 40.9816 2.06867 40.1803 2.20473C39.7642 2.2753 39.2463 2.36311 39.0366 2.27609C38.8486 2.19796 38.5456 1.76598 38.3244 1.45054C37.8473 0.770622 37.3068 0 36.4305 0C35.5543 0 35.0137 0.770534 34.5368 1.45037C34.3155 1.7658 34.0126 2.19778 33.8246 2.27592C33.615 2.36293 33.0971 2.27522 32.681 2.20455C31.8796 2.0685 30.9712 1.91443 30.3736 2.51208C29.7759 3.10973 29.93 4.01817 30.0659 4.81964C30.1365 5.23571 30.2244 5.75356 30.1373 5.96318C30.0592 6.15118 29.6272 6.45422 29.3118 6.67544C28.6319 7.15234 27.8613 7.69295 27.8613 8.56913C27.8613 9.4453 28.6318 9.98592 29.3117 10.4628C29.6271 10.6841 30.0591 10.9871 30.1372 11.1751C30.2243 11.3847 30.1365 11.9025 30.0659 12.3186C29.9299 13.1201 29.7757 14.0284 30.3734 14.6261C30.971 15.2237 31.8794 15.0697 32.6809 14.9337C33.097 14.8631 33.6149 14.7751 33.8245 14.8623C34.0125 14.9405 34.3155 15.3724 34.5367 15.6879C35.0136 16.3677 35.5543 17.1383 36.4304 17.1383C37.3066 17.1383 37.8472 16.3678 38.3241 15.688C38.5454 15.3725 38.8484 14.9406 39.0364 14.8624C39.2461 14.7753 39.7638 14.8632 40.1799 14.9338C40.9814 15.0698 41.8897 15.2239 42.4874 14.6263C43.085 14.0286 42.931 13.1202 42.795 12.3188C42.7244 11.9027 42.6365 11.3849 42.7236 11.1752C42.8018 10.9872 43.2338 10.6841 43.5492 10.4629C44.229 9.98601 44.9996 9.44539 44.9996 8.56921C44.9996 7.69304 44.2293 7.15251 43.5495 6.67562ZM42.7923 9.38378C42.2707 9.74967 41.7315 10.1279 41.5064 10.6693C41.2733 11.2303 41.3862 11.8959 41.4954 12.5395C41.5481 12.8503 41.6716 13.578 41.5554 13.6942C41.4391 13.8106 40.7115 13.6869 40.4007 13.6342C39.7572 13.5249 39.0916 13.4121 38.5306 13.6452C37.9891 13.8703 37.6108 14.4095 37.245 14.9311C37.027 15.2418 36.6212 15.8203 36.4305 15.8203C36.2398 15.8203 35.8341 15.2418 35.616 14.9311C35.2502 14.4095 34.872 13.8703 34.3305 13.6452C34.0889 13.5449 33.8281 13.5086 33.5578 13.5086C33.2005 13.5086 32.8268 13.572 32.4603 13.6342C32.1496 13.687 31.4219 13.8104 31.3055 13.6942C31.1894 13.578 31.3128 12.8502 31.3656 12.5395C31.4747 11.8959 31.5877 11.2304 31.3545 10.6694C31.1294 10.1279 30.5902 9.74958 30.0687 9.38378C29.7579 9.16581 29.1795 8.76002 29.1795 8.5693C29.1795 8.37858 29.758 7.97288 30.0687 7.75482C30.5902 7.38894 31.1294 7.01074 31.3545 6.46925C31.5877 5.90825 31.4747 5.24274 31.3655 4.59912C31.3128 4.28834 31.1894 3.56061 31.3055 3.44433C31.4219 3.32814 32.1496 3.45163 32.4603 3.50436C33.1038 3.61352 33.7694 3.72637 34.3304 3.49329C34.8719 3.2682 35.2502 2.72899 35.616 2.20745C35.8339 1.89667 36.2397 1.31827 36.4304 1.31827C36.6212 1.31827 37.0269 1.89676 37.2449 2.20745C37.6108 2.72899 37.989 3.2682 38.5304 3.49329C39.0915 3.72646 39.757 3.61352 40.4006 3.50436C40.7113 3.45163 41.4391 3.32832 41.5553 3.44433C41.6715 3.56052 41.548 4.28834 41.4953 4.59903C41.3861 5.24266 41.2732 5.90816 41.5064 6.46916C41.7314 7.01066 42.2707 7.38894 42.7922 7.75474C43.103 7.9727 43.6814 8.37849 43.6814 8.56921C43.6814 8.75994 43.103 9.16573 42.7923 9.38378ZM23.2046 21.3988C23.2245 21.7633 23.5387 22.0405 23.8992 22.0206C24.2627 22.0004 24.5411 21.6895 24.5209 21.326L24.1243 14.1579C24.1094 13.834 23.8213 13.5276 23.4661 13.5352H5.0355C4.78422 13.5232 4.38019 13.7786 4.37729 14.1586L3.39327 32.264C3.36883 32.6132 3.66968 32.9685 4.05148 32.9589H24.4501C24.7996 32.9653 25.1393 32.6431 25.1083 32.264L24.6811 24.4023C24.6613 24.0388 24.3527 23.7601 23.9871 23.7799C23.6236 23.7996 23.3449 24.1103 23.3647 24.4738L23.4262 25.6054H18.187L18.1049 20.8889H23.1764L23.2046 21.3988ZM23.4978 26.9237L23.7542 31.6405H18.2921L18.21 26.9237H23.4978ZM11.8205 14.8535H16.6812L16.7633 19.5705H11.7384L11.8205 14.8535ZM11.7154 20.8889H16.7863L16.8683 25.6054H11.6332L11.7154 20.8889ZM10.2096 31.6405H4.74748L5.00386 26.9237H10.2918L10.2096 31.6405ZM10.3147 25.6053H5.07549L5.33186 20.8888H10.3969L10.3147 25.6053ZM10.4198 19.5705H5.40349L5.65987 14.8535H10.5019L10.4198 19.5705ZM11.5282 31.6405L11.6103 26.9237H16.8913L16.9735 31.6405H11.5282ZM18.0819 19.5705L17.9998 14.8535H22.8424L23.1035 19.5705H18.0819ZM36.4305 4.83397C34.3708 4.83397 32.6952 6.50959 32.6952 8.5693C32.6952 10.629 34.3708 12.3046 36.4305 12.3046C38.4902 12.3046 40.1659 10.629 40.1659 8.5693C40.1659 6.50959 38.4902 4.83397 36.4305 4.83397ZM36.4305 10.9863C35.0978 10.9863 34.0135 9.90207 34.0135 8.5693C34.0135 7.23653 35.0978 6.15232 36.4305 6.15232C37.7633 6.15232 38.8475 7.23653 38.8475 8.5693C38.8475 9.90207 37.7633 10.9863 36.4305 10.9863ZM27.8426 43.6815H22.3061L21.5837 41.8031C21.2273 40.8764 20.3207 40.2537 19.3278 40.2537H17.3369V36.035H24.9142C26.759 36.0432 28.3163 34.4093 28.2051 32.5603L27.1734 13.576C27.0785 11.8281 25.6328 10.4589 23.8824 10.4589H12.5683C12.2043 10.4589 11.9091 10.7541 11.9091 11.1181C11.9091 11.4822 12.2043 11.7773 12.5683 11.7773H23.8824C24.9327 11.7773 25.8 12.5988 25.8571 13.6475L26.8888 32.6318C26.9544 33.739 26.0284 34.7229 24.9142 34.7167H3.58751C2.46365 34.7225 1.54669 33.7431 1.61287 32.6318L2.64462 13.6475C2.70166 12.5988 3.56905 11.7773 4.61934 11.7773H9.55016C9.9142 11.7773 10.2093 11.4822 10.2093 11.1181C10.2093 10.7541 9.9142 10.4589 9.55016 10.4589H4.61934C2.86891 10.4589 1.4233 11.8281 1.32837 13.576L0.29663 32.5603C0.18413 34.4085 1.7194 36.0465 3.58751 36.035H11.1648V40.2537H9.1739C8.181 40.2537 7.27441 40.8764 6.91802 41.8031L6.19565 43.6815H0.659177C0.295136 43.6815 0 43.9766 0 44.3406C0 44.7047 0.295136 44.9998 0.659177 44.9998H6.64442C6.64565 44.9998 6.64697 45 6.6482 45C6.64899 45 6.64969 44.9998 6.65048 44.9998H27.8425C28.2065 44.9998 28.5017 44.7047 28.5017 44.3406C28.5017 43.9766 28.2066 43.6815 27.8426 43.6815ZM12.4832 36.035H16.0186V40.2537H12.4832V36.035ZM7.60813 43.6815L8.14857 42.2764C8.31055 41.8552 8.72267 41.5721 9.17399 41.5721H19.3278C19.7791 41.5721 20.1911 41.8551 20.3532 42.2764L20.8936 43.6815H7.60813Z" fill="#77B80F"/>
</g>
<defs>
<clipPath id="clip0_3868_32">
<rect width="45" height="45" fill="white"/>
</clipPath>
</defs>
</svg>
