<svg width="45" height="45" viewBox="0 0 45 45" fill="none" xmlns="http://www.w3.org/2000/svg">
<ellipse opacity="0.6" cx="14.9998" cy="15.2114" rx="14.9998" ry="15.2114" fill="#E9E9E9"/>
<g clip-path="url(#clip0_3852_92)">
<path d="M15.0463 20.769C15.0463 21.1023 15.3127 21.3725 15.6414 21.3725C15.9701 21.3725 16.2365 21.1023 16.2365 20.769C16.2365 17.6064 17.9451 14.7115 20.6955 13.2141C20.985 13.0565 21.0938 12.6906 20.9384 12.397C20.7829 12.1034 20.4222 11.9931 20.1326 12.1507C16.9952 13.8588 15.0463 17.1611 15.0463 20.769ZM9.86486 24.2537C9.56493 23.0331 9.41283 21.7691 9.41283 20.4971C9.41283 17.3677 10.3283 14.3529 12.0604 11.7785C13.752 9.26405 16.1078 7.32438 18.8728 6.16924C19.1767 6.04227 19.3216 5.68959 19.1964 5.38134C19.0712 5.07324 18.7236 4.92615 18.4195 5.0532C15.4391 6.29839 12.9002 8.38876 11.0773 11.0982C9.20971 13.8739 8.22266 17.124 8.22266 20.4971C8.22266 21.8674 8.38658 23.2295 8.71007 24.5455C8.79021 24.8717 9.11925 25.064 9.4314 24.9851C9.75028 24.9046 9.94436 24.5771 9.86486 24.2537ZM28.6779 13.2141C31.4283 14.7115 33.137 17.6064 33.137 20.769C33.137 21.1023 33.4033 21.3725 33.732 21.3725C34.0608 21.3725 34.3271 21.1023 34.3271 20.769C34.3271 17.1611 32.3783 13.8588 29.2409 12.1507C28.9513 11.9931 28.5906 12.1033 28.4351 12.397C28.2796 12.6906 28.3883 13.0564 28.6779 13.2141ZM20.733 36.0986C20.8266 35.7791 20.647 35.4432 20.3319 35.3483C18.3325 34.7461 16.5035 33.7493 14.8957 32.3854C14.6436 32.1716 14.2683 32.2055 14.0574 32.4611C13.8466 32.7167 13.88 33.0973 14.132 33.3112C15.8652 34.7814 17.837 35.856 19.9931 36.5053C20.3001 36.5978 20.6383 36.4217 20.733 36.0986ZM38.451 27.7224L32.5496 22.6351C31.6753 21.8737 30.5018 22.2314 29.8621 23.0833L27.9876 21.9857C28.7439 19.9186 27.4421 17.6035 25.2818 17.2311V14.9175C25.4722 14.8508 25.657 14.7622 25.832 14.6495C26.5862 14.1633 27.0364 13.3321 27.0364 12.426V5.47636C27.0363 4.55248 26.2951 3.80078 25.384 3.80078C24.5859 3.80078 23.9024 4.37867 23.7587 5.17487L22.365 12.9013C22.2233 13.687 22.6224 14.4725 23.3355 14.8116C23.5791 14.9273 23.8339 15.0018 24.0916 15.0374V17.2326C23.0677 17.4114 22.1824 18.0291 21.6546 18.9371C21.0972 19.896 21.0339 21.0138 21.3864 21.9849L19.4088 23.1432C19.2565 23.0092 19.0881 22.8911 18.9041 22.7938C18.1121 22.3746 17.177 22.3949 16.4031 22.8479L10.4684 26.3227C9.6849 26.7749 9.41307 27.82 9.86367 28.6115C10.2659 29.3183 11.1105 29.6206 11.8497 29.3519L19.1448 26.7127C19.8867 26.4443 20.3579 25.7011 20.2908 24.9052C20.2678 24.6336 20.2043 24.3727 20.106 24.1287L21.98 23.031C22.1947 23.2937 22.4497 23.5286 22.7427 23.7252L22.1957 34.679C22.1779 35.0228 22.4504 35.313 22.7905 35.313C23.1053 35.313 23.3682 35.0625 23.3843 34.74L23.9091 24.2292C24.1646 24.2876 24.4231 24.3181 24.6805 24.3181C24.945 24.3181 25.2076 24.2861 25.4641 24.2271L26.4411 43.7914H22.9323L23.2428 37.5756C23.2595 37.2427 23.0068 36.9592 22.6786 36.9423C22.3505 36.9241 22.0708 37.1817 22.0542 37.5145L21.7406 43.7914H14.7965C14.4678 43.7914 14.2015 44.0616 14.2015 44.3949C14.2015 44.7282 14.4678 44.9984 14.7965 44.9984H34.5763C34.905 44.9984 35.1714 44.7282 35.1714 44.3949C35.1714 44.0616 34.905 43.7914 34.5763 43.7914H27.6328L26.6307 23.7234C26.9123 23.5347 27.1691 23.3024 27.3918 23.0305L29.3693 24.1884C29.1577 25.2799 29.6537 26.4137 30.62 26.9754L36.5547 30.4502C37.3349 30.908 38.3513 30.6458 38.8118 29.8369C39.2108 29.1359 39.0591 28.2467 38.451 27.7224ZM18.7449 25.576L11.4498 28.2152C11.2394 28.2915 11.006 28.2042 10.8944 28.0081C10.7687 27.7874 10.8452 27.4943 11.0635 27.3679L16.9983 23.8931C17.4244 23.6436 17.9184 23.6336 18.3536 23.8638C18.7893 24.0945 19.0632 24.5114 19.105 25.008C19.1261 25.258 18.978 25.4916 18.7449 25.576ZM23.8407 13.7187C23.6166 13.6122 23.4912 13.3654 23.5357 13.1186L24.9294 5.39212C24.9696 5.16939 25.1607 5.00782 25.384 5.00782C25.6389 5.00782 25.8461 5.21807 25.8461 5.47645V12.426C25.8461 12.9244 25.6082 13.3635 25.1934 13.6309C24.7788 13.8982 24.2857 13.9304 23.8407 13.7187ZM26.6931 21.9494C26.0409 23.0714 24.6102 23.4462 23.5035 22.7847C22.3971 22.1232 22.0276 20.6722 22.6799 19.55C23.1026 18.8228 23.8592 18.3872 24.6867 18.3872C24.6904 18.3872 24.6939 18.3867 24.6974 18.3867C26.4156 18.3563 27.6011 20.3872 26.6931 21.9494ZM37.781 29.2334C37.6536 29.4572 37.3706 29.5341 37.1497 29.4049L31.215 25.9301C30.3261 25.4199 30.2803 24.1011 31.1137 23.5224C31.3177 23.3808 31.5901 23.3921 31.7787 23.5547L37.6801 28.642C37.8501 28.7886 37.8927 29.0374 37.781 29.2334ZM24.6865 20.1462C24.3578 20.1462 24.0914 20.4164 24.0914 20.7497C24.0914 21.083 24.3578 21.3532 24.6865 21.3532C25.0151 21.3532 25.2816 21.083 25.2816 20.7497C25.2816 20.4164 25.0151 20.1462 24.6865 20.1462ZM34.4778 32.3853C32.8688 33.7497 31.0397 34.7465 29.0415 35.3483C28.7263 35.4432 28.5469 35.7791 28.6404 36.0986C28.735 36.4214 29.0721 36.5982 29.3802 36.5053C31.5349 35.8564 33.5069 34.7818 35.2411 33.3113C35.4933 33.0975 35.5268 32.7169 35.3159 32.4613C35.1053 32.2055 34.73 32.1716 34.4778 32.3853ZM38.2961 11.0982C36.4732 8.38876 33.9343 6.29839 30.9539 5.05328C30.6501 4.92623 30.3021 5.07324 30.177 5.38142C30.0518 5.68959 30.1967 6.04235 30.5006 6.16932C33.2657 7.32446 35.6213 9.26413 37.313 11.7785C39.0451 14.353 39.9605 17.3678 39.9605 20.4972C39.9605 21.7692 39.8084 23.0331 39.5085 24.2538C39.429 24.5772 39.6231 24.9046 39.9421 24.9853C40.2528 25.0638 40.583 24.8725 40.6634 24.5456C40.9868 23.2296 41.1508 21.8675 41.1508 20.4972C41.1508 17.124 40.1637 13.8739 38.2961 11.0982Z" fill="#77B80F"/>
</g>
<defs>
<clipPath id="clip0_3852_92">
<rect width="40.6246" height="41.1976" fill="white" transform="translate(4.375 3.80078)"/>
</clipPath>
</defs>
</svg>
