<svg width="45" height="45" viewBox="0 0 45 45" fill="none" xmlns="http://www.w3.org/2000/svg">
<path d="M39.7586 43.6815H10.237C11.0537 42.3152 12.5399 41.4464 14.1787 41.4464C14.9938 41.4464 15.7943 41.6627 16.4938 42.0719C17.2714 42.5269 18.2755 42.2644 18.7321 41.487C19.7024 39.8356 21.4937 38.8097 23.4071 38.8097C25.1625 38.8097 26.8167 39.6661 27.8322 41.1005C28.2442 41.6827 28.9751 41.9267 29.651 41.7081C30.1876 41.5344 30.7481 41.4463 31.3172 41.4463C32.3847 41.4463 33.4172 41.7563 34.3033 42.3428C34.607 42.5437 35.0158 42.4605 35.2168 42.1569C35.4177 41.8534 35.3345 41.4443 35.0309 41.2434C33.9284 40.5136 32.6442 40.128 31.3172 40.128C30.6102 40.128 29.913 40.2376 29.245 40.4538C29.1227 40.4933 28.9843 40.4461 28.9082 40.3387C28.0382 39.1097 26.7907 38.2223 25.3848 37.7893C25.3848 36.9848 25.3848 35.4977 25.3847 33.7909C26.6838 33.4741 27.9443 33.0266 29.1409 32.4604C30.8901 33.2002 33.7751 33.6826 35.9384 32.7275C37.8894 31.8661 39.4315 30.0714 40.2806 27.6741C41.1477 25.2263 41.1917 22.3494 40.4046 19.5732C40.3068 19.2284 40.0424 18.9659 39.6973 18.8711C39.3545 18.7769 38.996 18.8664 38.7382 19.1108C38.1694 19.6494 37.5369 20.0708 36.8578 20.3633C35.7121 20.857 34.9747 20.7444 33.821 20.9855C32.3189 21.2992 30.1327 22.1813 28.9147 23.6346C26.8431 26.1061 27.8094 29.8604 28.3309 31.3837C27.2666 31.8672 26.2605 32.2008 25.3846 32.4312C25.3845 29.1732 25.3844 25.5864 25.384 24.4723C25.8105 24.1094 26.0817 23.5692 26.0817 22.9666V21.2767C28.6853 20.2171 30.5261 17.6607 30.5261 14.6809V8.30888C30.5243 7.43042 29.7825 6.7229 28.9002 6.7708V2.19726C28.9002 0.98569 27.9145 0 26.7029 0C25.4913 0 24.5056 0.98569 24.5056 2.19726V6.7708H22.3084V2.19726C22.3084 0.98569 21.3227 0 20.1111 0C18.8996 0 17.9139 0.98569 17.9139 2.19726V6.7708C17.0381 6.7411 16.2895 7.41618 16.2879 8.30888V14.6809C16.2879 17.6604 18.1286 20.2167 20.7318 21.2766V22.9666C20.7318 23.5544 20.9916 24.1018 21.4297 24.4738V34.6557C20.5535 34.4252 19.547 34.0915 18.4823 33.6077C18.6782 33.0331 18.9384 32.136 19.075 31.1038C19.3622 28.933 18.9556 27.1194 17.8994 25.8592C16.6813 24.4059 14.4951 23.5238 12.9931 23.2101C11.8346 22.968 11.1025 23.0818 9.9562 22.5879C9.27733 22.2954 8.6447 21.874 8.07587 21.3354C7.81792 21.0912 7.45959 21.0016 7.11673 21.0957C6.77167 21.1905 6.50721 21.453 6.40947 21.7977C5.62233 24.5739 5.66636 27.4509 6.5334 29.8987C7.75885 33.3584 10.3797 35.5375 13.748 35.5375C15.3085 35.5375 16.7233 35.0862 17.6732 34.6849C18.8699 35.2511 20.1303 35.6987 21.4295 36.0154V37.7911C19.8413 38.2819 18.4573 39.3517 17.5952 40.8191C17.5046 40.9736 17.313 41.0238 17.1592 40.9339C16.258 40.4067 15.2272 40.128 14.1784 40.128C11.8099 40.128 9.68804 41.5376 8.7572 43.6814H4.69043C4.32639 43.6814 4.03125 43.9765 4.03125 44.3406C4.03125 44.7046 4.32639 44.9997 4.69043 44.9997H9.20641C9.20711 44.9997 9.20781 44.9999 9.20851 44.9999C9.20922 44.9999 9.21001 44.9997 9.21071 44.9997H39.7586C40.1226 44.9997 40.4177 44.7046 40.4177 44.3406C40.4177 43.9765 40.1226 43.6815 39.7586 43.6815ZM29.9252 24.4815C30.8625 23.3633 32.6926 22.568 34.0907 22.276C34.477 22.1953 34.8203 22.1548 35.1523 22.1156C35.8096 22.038 36.4893 21.9577 37.3796 21.5741C38.0506 21.285 38.6819 20.894 39.2621 20.4088C39.8421 22.7734 39.7657 25.1796 39.0379 27.234C38.3113 29.2856 37.0214 30.8083 35.4059 31.5216C34.5835 31.8847 32.9716 32.3151 30.7072 31.6301C31.3867 31.2286 32.0384 30.7857 32.6584 30.3055C32.7038 30.2775 32.7463 30.2451 32.784 30.2066C32.8557 30.1501 32.9283 30.0948 32.9989 30.0372C33.4124 29.7009 33.8094 29.3478 34.1912 28.9802C34.4852 29.0437 34.7834 29.0763 35.0827 29.0763C35.1494 29.0763 35.2163 29.0747 35.2831 29.0716C36.2682 29.0246 37.0266 28.6427 37.4893 28.3306C37.7912 28.1271 37.8709 27.7174 37.6672 27.4156C37.4637 27.1137 37.054 27.0341 36.7521 27.2377C36.4525 27.4398 35.9764 27.6834 35.3664 27.7437C36.2641 26.7087 37.0522 25.5747 37.722 24.3499C37.8967 24.0305 37.7794 23.63 37.46 23.4553C37.1407 23.2806 36.7401 23.3979 36.5653 23.7173C35.7051 25.2902 34.6363 26.702 33.3788 27.9321C33.3807 27.9158 33.3831 27.8995 33.3849 27.8831C33.4886 26.9634 33.471 26.0312 33.3327 25.1124C33.2786 24.7523 32.9428 24.5044 32.5828 24.5586C32.2228 24.6127 31.9749 24.9484 32.0291 25.3084C32.1502 26.1136 32.1656 26.9302 32.0748 27.7356C32.0138 28.2784 31.9036 28.8185 31.7474 29.3441C31.0067 29.9092 30.2583 30.3858 29.5237 30.7874C29.3581 30.2756 29.1559 29.5364 29.0461 28.7063C28.8053 26.8861 29.1011 25.4646 29.9252 24.4815ZM23.4071 37.4914C23.1859 37.4914 22.966 37.5024 22.7481 37.5241V35.4985C22.7481 35.4972 22.7481 35.4958 22.7481 35.4945V24.9441H24.0658C24.0661 26.5379 24.0663 30.1894 24.0664 33.2715V33.2731C24.0664 35.0458 24.0665 36.629 24.0665 37.5244C23.8484 37.5029 23.6285 37.4914 23.4071 37.4914ZM24.7634 22.9666C24.7634 23.3301 24.4678 23.6258 24.1042 23.6258H22.7094C22.3493 23.6272 22.0487 23.3248 22.0503 22.9666V21.6688C22.4898 21.754 22.943 21.8001 23.4071 21.8001C23.8709 21.8001 24.3241 21.7541 24.7634 21.669V22.9666ZM25.8241 2.19726C25.8241 1.71263 26.2184 1.31835 26.703 1.31835C27.1876 1.31835 27.5819 1.71263 27.5819 2.19726V6.7708H25.8241V2.19726ZM19.2323 2.19726C19.2323 1.71263 19.6266 1.31835 20.1112 1.31835C20.5958 1.31835 20.9901 1.71263 20.9901 2.19726V6.7708H19.2323V2.19726ZM17.6063 14.6809V11.1653H23.93C24.2941 11.1653 24.5892 10.8702 24.5892 10.5061C24.5892 10.1421 24.2941 9.84696 23.93 9.84696H17.6063V8.30888C17.6063 8.18777 17.705 8.08916 17.8261 8.08916H28.9881C29.1092 8.08916 29.2079 8.18777 29.2079 8.30888V9.84696H27.0106C26.6466 9.84696 26.3514 10.1421 26.3514 10.5061C26.3514 10.8702 26.6466 11.1653 27.0106 11.1653H29.2079V14.6809C29.2079 17.8795 26.6057 20.4817 23.4071 20.4817C20.2085 20.4817 17.6063 17.8795 17.6063 14.6809ZM17.7681 30.9309C17.6584 31.7609 17.4562 32.5 17.2906 33.0118C16.556 32.6101 15.8075 32.1334 15.0668 31.5683C14.9106 31.0428 14.8004 30.5029 14.7394 29.9601C14.6487 29.1547 14.6641 28.3381 14.7852 27.533C14.8393 27.173 14.5914 26.8373 14.2314 26.7832C13.8712 26.7288 13.5355 26.977 13.4815 27.337C13.3432 28.2558 13.3256 29.1881 13.4292 30.1077C13.431 30.124 13.4334 30.1404 13.4353 30.1567C12.1776 28.9267 11.109 27.5148 10.2492 25.942C10.0746 25.6226 9.67416 25.5052 9.35468 25.6798C9.03519 25.8544 8.91777 26.2549 9.09241 26.5743C9.76196 27.7992 10.5498 28.9332 11.4475 29.9682C10.8376 29.9079 10.3616 29.6643 10.062 29.4622C9.76011 29.2586 9.35046 29.3382 9.1469 29.64C8.94335 29.9418 9.02298 30.3516 9.32471 30.5551C9.78745 30.8672 10.5459 31.2492 11.5311 31.2961C11.5979 31.2993 11.6647 31.3009 11.7315 31.3009C12.0308 31.3009 12.3289 31.2682 12.6229 31.2048C13.0049 31.5725 13.402 31.9257 13.8156 32.2619C13.886 32.3191 13.9582 32.3741 14.0295 32.4304C14.0677 32.4695 14.1109 32.5025 14.157 32.5308C14.7767 33.0107 15.4281 33.4534 16.1072 33.8546C13.8427 34.5396 12.2306 34.1092 11.4082 33.7461C9.79281 33.0328 8.50284 31.5101 7.77617 29.4584C7.04844 27.404 6.97206 24.9979 7.55205 22.6332C8.1323 23.1185 8.76361 23.5094 9.43448 23.7985C10.3248 24.1821 11.0046 24.2624 11.6618 24.34C11.9938 24.3792 12.3371 24.4197 12.7234 24.5004C14.1215 24.7924 15.9516 25.5878 16.8889 26.7059C17.7132 27.6891 18.0089 29.1106 17.7681 30.9309Z" fill="#77B80F"/>
</svg>
