<svg width="44" height="46" viewBox="0 0 44 46" fill="none" xmlns="http://www.w3.org/2000/svg">
<g clip-path="url(#clip0_3852_87)">
<path d="M15.7892 17.2897C16.0327 17.5472 16.4274 17.5471 16.671 17.2897L18.1067 15.7719C18.3502 15.5144 18.3502 15.0971 18.1067 14.8397C17.8631 14.5824 17.4684 14.5824 17.2249 14.8397L15.7892 16.3575C15.5458 16.615 15.5458 17.0323 15.7892 17.2897ZM14.2667 14.7478L16.9093 11.954C17.1528 11.6966 17.1528 11.2793 16.9092 11.0219C16.6658 10.7645 16.271 10.7645 16.0275 11.022L13.3849 13.8157C13.1414 14.0731 13.1414 14.4904 13.385 14.7479C13.6284 15.0053 14.0232 15.0053 14.2667 14.7478ZM40.5478 4.24418C40.3256 3.96619 39.9321 3.93104 39.6693 4.16613C39.4062 4.40106 39.3732 4.81694 39.5954 5.09502C41.0115 6.86691 41.7913 9.12237 41.7913 11.4459C41.7913 16.8752 37.6132 21.2922 32.4776 21.2922C27.3421 21.2922 23.164 16.8752 23.164 11.4459C23.164 6.01669 27.342 1.59956 32.4775 1.59956C34.2959 1.59956 36.0573 2.15343 37.5714 3.20131C37.8593 3.40055 38.2459 3.31547 38.4346 3.01077C38.6232 2.70615 38.5425 2.29765 38.2544 2.09823C36.5368 0.909645 34.5392 0.28125 32.4775 0.28125C26.6544 0.28125 21.9169 5.28969 21.9169 11.4459C21.9169 17.6021 26.6544 22.6105 32.4775 22.6105C38.3007 22.6105 43.0382 17.6021 43.0382 11.4459C43.0383 8.81142 42.1539 6.25372 40.5478 4.24418ZM31.9808 27.8877L29.3383 30.6815C29.0948 30.9389 29.0948 31.3562 29.3384 31.6136C29.5819 31.871 29.9766 31.871 30.2201 31.6135L32.8626 28.8198C33.1061 28.5623 33.1061 28.1451 32.8625 27.8876C32.6192 27.6304 32.2244 27.6303 31.9808 27.8877ZM29.3212 17.288C29.0656 17.9867 29.3588 18.7623 30.0033 19.0921C30.512 19.3525 31.0941 19.2974 31.6303 18.7612C33.4552 16.9363 35.3159 15.0761 37.1361 13.2504C37.4757 12.9097 37.6408 12.4507 37.589 11.9911C37.5366 11.5259 37.2693 11.1149 36.8557 10.8634C35.9719 10.3261 35.0905 9.78416 34.2079 9.24453C34.6869 8.05594 35.1842 6.82824 35.6334 5.60116C35.7934 5.16436 35.7386 4.6736 35.4867 4.2883C34.9712 3.4996 33.9906 3.45811 33.3237 4.12905C31.4794 5.98426 29.6553 7.80036 27.8194 9.63897C27.4834 9.9754 27.3177 10.4316 27.3645 10.8904C27.4109 11.3445 27.6612 11.7477 28.051 11.9965C28.9478 12.569 29.851 13.1071 30.7479 13.649C30.2606 14.8789 29.773 16.0533 29.3212 17.288ZM30.4842 17.7637C30.6251 17.3787 31.7375 14.5595 32.0731 13.7195C32.2266 13.3352 32.101 12.9503 31.753 12.7386C31.4709 12.5671 29.4221 11.3317 28.6956 10.868C28.664 10.8479 28.6262 10.6469 28.677 10.596C29.4915 9.78029 34.1525 5.05529 34.33 4.96863C34.4444 4.97839 34.4968 5.05309 34.4705 5.12499C34.068 6.22384 32.9852 8.91522 32.8835 9.1693C32.7316 9.54844 32.859 9.94341 33.2006 10.1519C33.6141 10.4042 35.6353 11.6424 36.2339 12.0064C36.3017 12.0476 36.3288 12.2428 36.2775 12.294C34.8183 13.7575 30.742 18.0054 30.5465 17.9056C30.4987 17.881 30.4608 17.8275 30.4842 17.7637ZM27.8157 29.0717L29.2975 27.5051C29.541 27.2477 29.541 26.8303 29.2974 26.573C29.054 26.3157 28.6592 26.3156 28.4157 26.5731L26.9339 28.1396C26.6904 28.397 26.6904 28.8144 26.934 29.0717C27.1775 29.3292 27.5722 29.3292 27.8157 29.0717ZM26.1183 30.5858C25.4446 29.8668 24.3063 29.8679 23.6336 30.5858L17.5475 37.02C14.9616 39.7539 10.754 39.7539 8.16811 37.02C5.58218 34.2863 5.58218 29.8379 8.16811 27.1042L14.2543 20.67C14.9392 19.9458 14.9392 18.7675 14.2543 18.0432L12.6722 16.3706C12.3403 16.0199 11.8991 15.8267 11.4298 15.8267C10.9605 15.8267 10.5194 16.0199 10.1875 16.3706L4.10134 22.8048C2.88527 24.0905 1.95269 25.5938 1.32953 27.273C1.20366 27.6118 1.36162 27.9943 1.68218 28.1273C2.00257 28.2605 2.36453 28.0933 2.49031 27.7545C3.05046 26.2453 3.88918 24.8937 4.98313 23.7371L9.05148 19.4361L11.3547 21.871L7.28632 26.172C5.79816 27.7453 4.97856 29.8372 4.97856 32.0622C4.97856 34.2872 5.79808 36.379 7.28632 37.9524C10.3585 41.2001 15.3572 41.2001 18.4294 37.9524L22.4976 33.6514L24.8007 36.0863L20.7325 40.3872C16.3904 44.9778 9.32499 44.9777 4.98304 40.3872C2.55149 37.8166 1.39154 34.2695 1.80056 30.6552C1.84137 30.2938 1.59746 29.9656 1.25545 29.9224C0.914028 29.8798 0.603195 30.1371 0.562294 30.4987C0.107557 34.5171 1.39753 38.4611 4.10126 41.3195C8.92952 46.424 16.7858 46.4239 21.6143 41.3195L27.7003 34.8853C28.3853 34.1611 28.3853 32.9827 27.7003 32.2584L26.1183 30.5858ZM9.93327 18.5039L11.0693 17.3029C11.268 17.0926 11.5916 17.0926 11.7904 17.3029L13.3725 18.9755C13.5713 19.1856 13.5713 19.5276 13.3725 19.7378L12.2365 20.9388L9.93327 18.5039ZM26.8186 33.953L25.6826 35.154L23.3795 32.7191L24.5155 31.5181C24.7104 31.3094 25.0413 31.3095 25.2365 31.5181L26.8186 33.1907C27.0175 33.4009 27.0175 33.7428 26.8186 33.953Z" fill="#77B80F"/>
</g>
<defs>
<clipPath id="clip0_3852_87">
<rect width="42.5656" height="45" fill="white" transform="translate(0.472656 0.210938)"/>
</clipPath>
</defs>
</svg>
