<svg width="45" height="46" viewBox="0 0 45 46" fill="none" xmlns="http://www.w3.org/2000/svg">
<g clip-path="url(#clip0_3852_94)">
<path d="M12.0316 19.3352C12.0316 19.6992 12.3225 19.9943 12.6816 19.9943C13.0407 19.9943 13.3316 19.6992 13.3316 19.3352C13.3316 15.8806 15.1979 12.7186 18.2022 11.0829C18.5184 10.9108 18.6373 10.5111 18.4675 10.1904C18.2976 9.86969 17.9036 9.74919 17.5873 9.92137C14.1603 11.7871 12.0316 15.3942 12.0316 19.3352ZM6.3719 23.1414C6.04429 21.8081 5.87815 20.4275 5.87815 19.0381C5.87815 15.6199 6.87813 12.3268 8.77009 9.51479C10.6179 6.76829 13.191 4.6496 16.2112 3.38784C16.5432 3.24915 16.7014 2.86393 16.5647 2.52722C16.428 2.19068 16.0482 2.03002 15.7161 2.1688C12.4606 3.52891 9.68739 5.81222 7.69627 8.77176C5.65628 11.8036 4.57812 15.3537 4.57812 19.0381C4.57812 20.5349 4.75718 22.0227 5.11053 23.4601C5.19806 23.8164 5.55748 24.0265 5.89843 23.9404C6.24675 23.8524 6.45874 23.4947 6.3719 23.1414ZM26.9214 11.0829C29.9256 12.7186 31.7919 15.8806 31.7919 19.3352C31.7919 19.6992 32.0829 19.9943 32.4419 19.9943C32.801 19.9943 33.092 19.6992 33.092 19.3352C33.092 15.3942 30.9632 11.7871 27.5363 9.92137C27.2199 9.74919 26.8259 9.8696 26.6561 10.1904C26.4863 10.5111 26.605 10.9107 26.9214 11.0829ZM18.2431 36.0796C18.3454 35.7306 18.1492 35.3637 17.805 35.2601C15.6211 34.6023 13.6233 33.5134 11.8671 32.0237C11.5917 31.7901 11.1818 31.8271 10.9514 32.1064C10.7212 32.3856 10.7577 32.8013 11.0329 33.0349C12.926 34.6408 15.0799 35.8146 17.4349 36.5238C17.7702 36.6248 18.1397 36.4325 18.2431 36.0796ZM37.5965 26.9303L31.1503 21.3734C30.1953 20.5418 28.9136 20.9325 28.2148 21.863L26.1673 20.6641C26.9934 18.4062 25.5715 15.8775 23.2118 15.4707V12.9436C23.4198 12.8707 23.6216 12.7739 23.8127 12.6508C24.6365 12.1198 25.1283 11.2119 25.1283 10.222V2.63102C25.1282 1.62186 24.3186 0.800781 23.3234 0.800781C22.4516 0.800781 21.7051 1.43201 21.5481 2.30169L20.0258 10.7413C19.871 11.5995 20.3069 12.4575 21.0858 12.8278C21.3519 12.9543 21.6303 13.0356 21.9118 13.0745V15.4723C20.7933 15.6677 19.8264 16.3423 19.2498 17.3342C18.6409 18.3815 18.5718 19.6025 18.9568 20.6633L16.7967 21.9285C16.6304 21.782 16.4464 21.6531 16.2455 21.5468C15.3804 21.0889 14.359 21.1111 13.5136 21.6059L7.03118 25.4014C6.17533 25.8953 5.87841 27.0369 6.3706 27.9015C6.81 28.6734 7.7325 29.0037 8.5399 28.7102L16.5083 25.8274C17.3187 25.5343 17.8334 24.7224 17.7601 23.8531C17.7351 23.5565 17.6656 23.2714 17.5582 23.0049L19.6052 21.8059C19.8398 22.0928 20.1183 22.3495 20.4383 22.5642L19.8408 34.529C19.8214 34.9045 20.119 35.2215 20.4905 35.2215C20.8344 35.2215 21.1215 34.9479 21.1391 34.5956L21.7124 23.1146C21.9914 23.1784 22.2738 23.2117 22.555 23.2117C22.8439 23.2117 23.1308 23.1769 23.4109 23.1123L24.4781 44.4824H20.6455L20.9846 37.6929C21.0028 37.3293 20.7268 37.0196 20.3683 37.0012C20.0099 36.9813 19.7044 37.2626 19.6863 37.6262L19.3438 44.4824H11.7588C11.3997 44.4824 11.1087 44.7776 11.1087 45.1416C11.1087 45.5056 11.3997 45.8008 11.7588 45.8008H33.3641C33.7232 45.8008 34.0141 45.5056 34.0141 45.1416C34.0141 44.7776 33.7232 44.4824 33.3641 44.4824H25.7798L24.6851 22.5622C24.9928 22.3561 25.2733 22.1024 25.5166 21.8053L27.6765 23.0701C27.4454 24.2624 27.9872 25.5008 29.0427 26.1143L35.5252 29.9099C36.3774 30.4099 37.4875 30.1236 37.9905 29.2399C38.4264 28.4743 38.2607 27.503 37.5965 26.9303ZM16.0715 24.5857L8.10309 27.4686C7.87334 27.5519 7.61836 27.4565 7.49642 27.2423C7.35913 27.0012 7.44268 26.6811 7.68119 26.5431L14.1637 22.7476C14.6292 22.475 15.1688 22.4641 15.6441 22.7156C16.12 22.9675 16.4192 23.423 16.4649 23.9654C16.4879 24.2384 16.3262 24.4936 16.0715 24.5857ZM21.6376 11.6341C21.3929 11.5177 21.2559 11.2482 21.3046 10.9786L22.8269 2.53899C22.8707 2.29571 23.0795 2.11923 23.3234 2.11923C23.6018 2.11923 23.8282 2.34889 23.8282 2.6311V10.222C23.8282 10.7664 23.5683 11.2461 23.1152 11.5382C22.6624 11.8302 22.1238 11.8653 21.6376 11.6341ZM24.7534 20.6244C24.0409 21.8501 22.4781 22.2595 21.2693 21.5368C20.0608 20.8143 19.6572 19.2293 20.3697 18.0036C20.8314 17.2093 21.6579 16.7335 22.5618 16.7335C22.5658 16.7335 22.5696 16.733 22.5735 16.7329C24.4502 16.6998 25.7452 18.9181 24.7534 20.6244ZM36.8646 28.5807C36.7254 28.8252 36.4163 28.9092 36.1751 28.7681L29.6926 24.9725C28.7216 24.4152 28.6716 22.9748 29.582 22.3427C29.8047 22.188 30.1023 22.2003 30.3084 22.3779L36.7544 27.9347C36.9401 28.095 36.9866 28.3666 36.8646 28.5807ZM22.5615 18.6549C22.2025 18.6549 21.9115 18.95 21.9115 19.3141C21.9115 19.6781 22.2025 19.9732 22.5615 19.9732C22.9205 19.9732 23.2115 19.6781 23.2115 19.3141C23.2115 18.95 22.9205 18.6549 22.5615 18.6549ZM33.2565 32.0236C31.499 33.5138 29.5011 34.6027 27.3185 35.2601C26.9742 35.3637 26.7782 35.7306 26.8804 36.0796C26.9837 36.4322 27.3519 36.6253 27.6885 36.5238C30.042 35.815 32.196 34.6412 34.0903 33.035C34.3657 32.8015 34.4024 32.3858 34.172 32.1065C33.942 31.8271 33.532 31.7901 33.2565 32.0236ZM37.4273 8.77176C35.4361 5.81222 32.6629 3.52891 29.4073 2.16889C29.0756 2.03011 28.6955 2.19068 28.5588 2.5273C28.422 2.86393 28.5803 3.24924 28.9122 3.38793C31.9325 4.64969 34.5056 6.76838 36.3534 9.51487C38.2453 12.3269 39.2453 15.62 39.2453 19.0382C39.2453 20.4276 39.0792 21.8081 38.7516 23.1415C38.6647 23.4948 38.8767 23.8525 39.2251 23.9405C39.5645 24.0263 39.9252 23.8174 40.013 23.4603C40.3663 22.0229 40.5454 20.535 40.5454 19.0383C40.5454 15.3537 39.4673 11.8036 37.4273 8.77176Z" fill="#77B80F"/>
</g>
<defs>
<clipPath id="clip0_3852_94">
<rect width="44.3741" height="45" fill="white" transform="translate(0.375 0.800781)"/>
</clipPath>
</defs>
</svg>
