<svg width="45" height="45" viewBox="0 0 45 45" fill="none" xmlns="http://www.w3.org/2000/svg">
<g clip-path="url(#clip0_3852_3585)">
<path d="M30.441 11.2881C29.176 11.2881 28.1469 12.3173 28.1469 13.5822C28.1469 14.8472 29.176 15.8764 30.441 15.8764H39.5164C40.7813 15.8764 41.8105 14.8472 41.8105 13.5822C41.8105 13.2329 41.732 12.9016 41.5918 12.605H42.7057C43.9708 12.605 44.9999 11.5758 44.9999 10.3109C44.9999 9.04594 43.9708 8.01671 42.7057 8.01671H33.6305C32.3655 8.01671 31.3363 9.04594 31.3363 10.3109C31.3363 10.6602 31.4148 10.9914 31.555 11.2881H30.441ZM33.6305 11.2881C33.0916 11.2881 32.6533 10.8497 32.6533 10.3109C32.6533 9.77201 33.0916 9.33364 33.6305 9.33364H42.7058C43.2447 9.33364 43.6831 9.77201 43.6831 10.3109C43.6831 10.8497 43.2447 11.2881 42.7058 11.2881H39.5164C39.1527 11.2881 38.8579 11.5828 38.8579 11.9465C38.8579 12.3103 39.1527 12.605 39.5164 12.605C40.0552 12.605 40.4936 13.0433 40.4936 13.5822C40.4936 14.1211 40.0552 14.5595 39.5164 14.5595H30.441C29.9022 14.5595 29.4638 14.1211 29.4638 13.5822C29.4638 13.0433 29.9022 12.605 30.441 12.605H33.6305C33.9942 12.605 34.289 12.3103 34.289 11.9465C34.289 11.5828 33.9942 11.2881 33.6305 11.2881ZM44.2927 43.6616H42.6204C41.4097 41.0142 40.3843 38.2823 39.619 35.4777C39.5233 35.1268 39.1611 34.9198 38.8105 35.0157C38.4597 35.1114 38.2528 35.4734 38.3485 35.8242C39.0797 38.5049 40.0375 41.1312 41.1816 43.6616H31.9091C29.6813 38.8454 27.9946 33.7398 27.006 28.5225C26.874 27.8259 26.7554 27.1265 26.6472 26.4255H36.7041C36.8764 28.5607 37.1809 30.6862 37.617 32.7798C37.6917 33.1383 38.0471 33.3629 38.396 33.2902C38.752 33.216 38.9805 32.8673 38.9063 32.5112C38.0715 28.5043 37.7295 24.3831 37.8936 20.2913C37.9199 19.6337 37.3802 18.9996 36.6571 19.0051H25.9511C25.8954 17.4108 25.8961 15.8133 25.9677 14.2197C25.9988 13.5286 25.421 12.9298 24.7317 12.9332H9.60612C8.89077 12.9048 8.3496 13.7356 8.37005 14.2199C8.57224 19.0053 8.22326 23.8176 7.3317 28.5224C6.34014 33.7555 4.66044 38.8293 2.42859 43.6615H0.658465C0.294817 43.6615 0 43.9562 0 44.32C0 44.6837 0.294817 44.9784 0.658465 44.9784C0.661274 44.9776 44.2869 44.9784 44.2927 44.9784C44.6564 44.9784 44.9512 44.6837 44.9512 44.32C44.9512 43.9562 44.6564 43.6616 44.2927 43.6616ZM36.5743 20.3221C36.5134 21.9163 36.5289 23.5153 36.6141 25.1087H26.4573C26.2477 23.5293 26.0992 21.9414 26.0104 20.3504C26.0099 20.341 26.0094 20.3315 26.0089 20.3221H36.5743ZM3.86729 43.6616C6.03716 38.8986 7.65145 33.9087 8.62554 28.7677C9.05828 26.484 9.36451 24.1753 9.54598 21.8567H18.6914C19.055 21.8567 19.3498 21.5619 19.3498 21.1982C19.3498 20.8345 19.055 20.5397 18.6914 20.5397H9.63606C9.7566 18.447 9.77442 16.3446 9.68918 14.2501H24.6485C24.5602 16.343 24.5833 18.4486 24.7016 20.5397H21.7644C21.4007 20.5397 21.1059 20.8345 21.1059 21.1982C21.1059 21.5619 21.4007 21.8567 21.7644 21.8567H24.7917C24.8954 23.1813 25.0402 24.5027 25.226 25.8181C25.2283 25.8472 25.232 25.8759 25.2379 25.9039C25.3746 26.8621 25.532 27.8172 25.7122 28.7677C26.6855 33.9043 28.2999 38.907 30.4704 43.6616H3.86729ZM16.6119 7.88695H25.6873C26.9523 7.88695 27.9814 6.85773 27.9814 5.59277C27.9814 5.24344 27.9029 4.91219 27.7627 4.61553H28.8767C30.1416 4.61553 31.1708 3.58639 31.1708 2.32143C31.1708 1.05648 30.1417 0.0273438 28.8767 0.0273438H19.8013C18.5364 0.0273438 17.5073 1.05657 17.5073 2.32152C17.5073 2.67086 17.5857 3.00202 17.726 3.29868H16.612C15.3471 3.29868 14.3179 4.32791 14.3179 5.59286C14.3179 6.85782 15.347 7.88695 16.6119 7.88695ZM16.6119 4.61561H19.8013C20.165 4.61561 20.4598 4.32088 20.4598 3.95715C20.4598 3.59341 20.165 3.29868 19.8013 3.29868C19.2625 3.29868 18.8242 2.86032 18.8242 2.32152C18.8242 1.78263 19.2625 1.34427 19.8013 1.34427H28.8767C29.4155 1.34427 29.8539 1.78263 29.8539 2.32152C29.8539 2.86032 29.4155 3.29868 28.8767 3.29868H25.6873C25.3237 3.29868 25.0289 3.59341 25.0289 3.95715C25.0289 4.32088 25.3237 4.61561 25.6873 4.61561C26.2261 4.61561 26.6645 5.05397 26.6645 5.59286C26.6645 6.13175 26.2261 6.57002 25.6873 6.57002H16.6119C16.0731 6.57002 15.6348 6.13166 15.6348 5.59277C15.6348 5.05389 16.0731 4.61561 16.6119 4.61561ZM16.7922 24.6389C16.4721 24.4551 16.0876 24.4509 15.7636 24.6278C15.4406 24.8042 15.2369 25.1288 15.2187 25.4961C15.1888 26.1004 15.066 26.6774 14.8538 27.211C14.4687 28.1795 13.9613 28.5524 13.4133 29.39C12.6913 30.4934 11.8991 32.3599 12.0425 33.9886C12.2517 36.3635 14.3475 38.0589 16.3692 39.0556C16.2444 39.4053 16.1068 39.7511 15.9541 40.0918C15.8053 40.4237 15.9537 40.8133 16.2856 40.9621C16.6105 41.1077 17.0052 40.9665 17.1558 40.6306C17.3672 40.159 17.5538 39.6787 17.7163 39.1915C19.031 38.6405 21.0524 37.4681 21.9085 35.258C22.5649 33.5636 22.4224 31.5543 21.5073 29.6C20.5773 27.6138 18.9028 25.8519 16.7922 24.6389ZM20.6804 34.7822C20.4207 35.4526 19.7682 36.5883 18.1742 37.5038C18.3806 36.5281 18.4916 35.527 18.5053 34.5305L19.6895 33.1333C19.9246 32.8558 19.8904 32.4403 19.6129 32.2052C19.3354 31.9702 18.9199 32.0044 18.6848 32.2818L18.4113 32.6044C18.3134 31.7332 18.1411 30.8683 17.8938 30.0149C17.7925 29.6655 17.4273 29.4643 17.0781 29.5658C16.7288 29.6669 16.5277 30.0322 16.629 30.3815C16.9774 31.584 17.1642 32.8108 17.188 34.0456C16.7836 33.5813 16.3291 33.1608 15.8319 32.7936C15.5392 32.5775 15.127 32.6394 14.911 32.9321C14.695 33.2247 14.757 33.6369 15.0495 33.8529C15.5528 34.2246 16.0049 34.6599 16.3933 35.1469C16.6469 35.4647 16.8721 35.8071 17.0686 36.1648C16.9969 36.7081 16.8923 37.2454 16.7583 37.7755C15.2417 36.997 13.4902 35.416 13.3544 33.8732C13.2478 32.663 13.8607 31.1117 14.5153 30.1112C15.0989 29.2192 15.6168 28.856 16.0775 27.6978C16.2913 27.1605 16.4324 26.5905 16.4988 25.9983C18.2053 27.0643 19.5517 28.5289 20.3147 30.1584C21.0759 31.7841 21.2058 33.4262 20.6804 34.7822Z" fill="#77B80F"/>
</g>
<defs>
<clipPath id="clip0_3852_3585">
<rect width="45" height="45" fill="white"/>
</clipPath>
</defs>
</svg>
