<svg width="45" height="45" viewBox="0 0 45 45" fill="none" xmlns="http://www.w3.org/2000/svg">
<path d="M44.3407 41.9236C42.3698 41.9236 41.3306 42.4254 40.4138 42.8681C39.5476 43.2864 38.7295 43.6815 37.0602 43.6815C35.3909 43.6815 34.5727 43.2864 33.7065 42.8681C32.7898 42.4254 31.7506 41.9236 29.7796 41.9236C27.8088 41.9236 26.7696 42.4254 25.8528 42.8681C24.9867 43.2864 24.1686 43.6815 22.4994 43.6815C20.8303 43.6815 20.0122 43.2864 19.146 42.8681C18.2292 42.4254 17.1902 41.9236 15.2193 41.9236C13.2485 41.9236 12.2094 42.4254 11.2926 42.8681C10.4265 43.2864 9.60843 43.6815 7.93922 43.6815C6.27001 43.6815 5.45192 43.2864 4.58585 42.8681C3.66907 42.4254 2.63003 41.9236 0.659177 41.9236C0.295136 41.9236 0 42.2186 0 42.5828C0 42.947 0.295136 43.242 0.659177 43.242C2.32839 43.242 3.14647 43.6371 4.01254 44.0554C4.92933 44.4982 5.96837 45 7.93922 45C9.91007 45 10.9491 44.4982 11.8659 44.0554C12.7321 43.6371 13.5501 43.242 15.2193 43.242C16.8886 43.242 17.7066 43.6371 18.5727 44.0554C19.4895 44.4982 20.5285 45 22.4993 45C24.4702 45 25.5093 44.4982 26.4261 44.0554C27.2922 43.6371 28.1103 43.242 29.7795 43.242C31.4488 43.242 32.267 43.6371 33.1331 44.0554C34.0499 44.4982 35.0891 45 37.0601 45C39.0311 45 40.0702 44.4982 40.987 44.0554C41.8532 43.6371 42.6714 43.242 44.3407 43.242C44.7047 43.242 44.9998 42.947 44.9998 42.5828C44.9998 42.2186 44.7048 41.9236 44.3407 41.9236ZM44.3407 33.687C42.3698 33.687 41.3306 34.1888 40.4138 34.6316C39.5476 35.0499 38.7295 35.445 37.0602 35.445C35.3909 35.445 34.5727 35.0499 33.7065 34.6316C32.842 34.214 31.8681 33.7441 30.1071 33.692L31.7286 32.0703C31.986 31.8128 31.986 31.3954 31.7286 31.138C31.4711 30.8807 31.0537 30.8806 30.7964 31.1381L28.1037 33.8312C27.1366 34.0122 26.467 34.3351 25.8529 34.6316C24.9868 35.0499 24.1687 35.445 22.4995 35.445C20.8304 35.445 20.0123 35.0499 19.1461 34.6316C18.2293 34.1889 17.1903 33.6871 15.2194 33.6871C14.9999 33.6871 14.7926 33.6936 14.5951 33.7053L9.32208 28.4318C10.4508 28.2654 11.1918 27.9081 11.8661 27.5825C12.7322 27.1642 13.5503 26.7691 15.2195 26.7691C16.8887 26.7691 17.7068 27.1642 18.5729 27.5825C19.4897 28.0252 20.5287 28.527 22.4995 28.527C24.4703 28.527 25.5095 28.0252 26.4262 27.5825C27.2924 27.1642 28.1105 26.7691 29.7797 26.7691C31.449 26.7691 32.2672 27.1642 33.1333 27.5825C33.3959 27.7092 33.6685 27.8408 33.9701 27.9641L32.9474 28.987C32.69 29.2445 32.69 29.6619 32.9474 29.9193C33.2049 30.1766 33.6223 30.1767 33.8796 29.9192L35.4107 28.3878C35.8813 28.4741 36.4216 28.527 37.0603 28.527C39.0312 28.527 40.0704 28.0252 40.9872 27.5825C41.8534 27.1642 42.6715 26.7691 44.3408 26.7691C44.7049 26.7691 45 26.474 45 26.1098C45 25.7457 44.7049 25.4506 44.3408 25.4506C42.3699 25.4506 41.3307 25.9524 40.4139 26.3952C39.5477 26.8135 38.7296 27.2086 37.0603 27.2086C36.899 27.2086 36.7478 27.2038 36.6016 27.1968L44.6136 19.1839C44.8626 18.9349 44.9998 18.6035 44.9998 18.2511C44.9998 17.8985 44.8626 17.5672 44.6136 17.3182L42.1852 14.8897C41.9362 14.6406 41.6049 14.5033 41.2524 14.5033C40.8999 14.5033 40.5686 14.6406 40.3196 14.8896L34.3471 20.8605L24.1378 10.649L30.108 4.67732C30.618 4.17217 30.6154 3.31393 30.108 2.81151L27.6797 0.382796C27.1747 -0.127276 26.3188 -0.127013 25.8141 0.382796L20.7165 5.48079C20.3475 4.28476 19.6911 3.18876 18.7809 2.27858C15.7431 -0.759527 10.8 -0.759527 7.76212 2.27858C6.29048 3.75026 5.48005 5.70695 5.48005 7.78838C5.48005 9.86972 6.29048 11.8265 7.76212 13.2983C8.68936 14.2256 9.79458 14.8683 10.9684 15.2296L8.8052 17.3927C8.54777 17.6502 8.54777 18.0676 8.8052 18.3251C9.06263 18.5825 9.47993 18.5825 9.73745 18.3251L12.5216 15.541C14.7904 15.7589 17.0731 15.0062 18.781 13.2983C20.2526 11.8265 21.0631 9.8698 21.0631 7.78838C21.0631 7.53514 21.0506 7.28384 21.0269 7.035L26.7476 1.31504L29.1759 3.74489L23.2064 9.71581C22.9563 9.96491 22.8187 10.2965 22.8187 10.6495C22.8187 11.0025 22.9563 11.3341 23.2056 11.5824L33.4141 21.7918C33.6632 22.0419 33.9948 22.1796 34.3477 22.1796C34.7007 22.1796 35.0322 22.0419 35.2805 21.7927L41.253 15.8218L43.6814 18.2517L35.0006 26.9335C34.5169 26.7853 34.1166 26.5932 33.7066 26.3952C32.7898 25.9524 31.7507 25.4506 29.7797 25.4506C27.8088 25.4506 26.7697 25.9524 25.8529 26.3952C24.9868 26.8135 24.1687 27.2086 22.4995 27.2086C20.8304 27.2086 20.0123 26.8135 19.1461 26.3952C18.2293 25.9524 17.1903 25.4506 15.2194 25.4506C13.2486 25.4506 12.2095 25.9524 11.2927 26.3952C10.4546 26.7999 9.65914 27.1818 8.09645 27.2062L5.41088 24.5204C4.89566 24.0052 4.89566 23.1667 5.41088 22.6514L7.66729 20.3952C7.92472 20.1377 7.9248 19.7203 7.66737 19.4629C7.41003 19.2055 6.99264 19.2054 6.73521 19.4628L4.47871 21.7192C3.44952 22.7485 3.44952 24.4234 4.47871 25.4528L5.99306 26.9673C5.45728 26.8154 5.0275 26.6085 4.58594 26.3952C3.66916 25.9525 2.63012 25.4507 0.659265 25.4507C0.295223 25.4507 8.78903e-05 25.7458 8.78903e-05 26.1099C8.78903e-05 26.4741 0.295223 26.7692 0.659265 26.7692C2.32848 26.7692 3.14656 27.1643 4.01263 27.5826C4.86622 27.9948 5.82634 28.458 7.54547 28.5199L12.9839 33.9588C12.3039 34.1434 11.7809 34.3959 11.2926 34.6317C10.4265 35.05 9.60843 35.4451 7.93922 35.4451C6.27001 35.4451 5.45192 35.05 4.58585 34.6317C3.66907 34.189 2.63003 33.6872 0.659177 33.6872C0.295136 33.6872 0 33.9822 0 34.3464C0 34.7106 0.295136 35.0056 0.659177 35.0056C2.32839 35.0056 3.14647 35.4007 4.01254 35.8191C4.92933 36.2618 5.96837 36.7636 7.93922 36.7636C9.91007 36.7636 10.9491 36.2618 11.8659 35.8191C12.5127 35.5067 13.133 35.2075 14.1007 35.0758L19.5457 40.5212C20.0603 41.0358 20.7363 41.2932 21.4123 41.2932C22.0882 41.2932 22.7643 41.0358 23.2789 40.5212L28.7322 35.0671C29.0425 35.0281 29.3867 35.0056 29.7795 35.0056C31.4488 35.0056 32.267 35.4007 33.1331 35.8191C34.0499 36.2618 35.0891 36.7636 37.0601 36.7636C39.0311 36.7636 40.0702 36.2618 40.987 35.8191C41.8532 35.4007 42.6714 35.0056 44.3407 35.0056C44.7047 35.0056 44.9998 34.7106 44.9998 34.3464C44.9998 33.9822 44.7048 33.687 44.3407 33.687ZM6.7984 7.78838C6.7984 6.05916 7.47173 4.43349 8.69428 3.21074C11.0486 0.856214 14.8066 0.687187 17.3589 2.76817L8.25176 11.8763C7.31045 10.7245 6.7984 9.29592 6.7984 7.78838ZM17.8488 12.3659C15.4822 14.7326 11.7241 14.8801 9.18401 12.8085L18.2913 3.70051C19.2326 4.85223 19.7446 6.28093 19.7446 7.78838C19.7446 9.5176 19.0713 11.1433 17.8488 12.3659ZM22.3468 39.5887C21.8315 40.1041 20.9931 40.1039 20.4779 39.5887L15.9221 35.0325C17.1361 35.127 17.8382 35.4642 18.5728 35.819C19.4896 36.2617 20.5286 36.7635 22.4994 36.7635C24.0681 36.7635 25.0463 36.4456 25.8426 36.0926L22.3468 39.5887Z" fill="#77B80F"/>
</svg>
