<svg width="50" height="50" viewBox="0 0 50 50" fill="none" xmlns="http://www.w3.org/2000/svg">
<g clip-path="url(#clip0_3868_3539)">
<path d="M6.22172 26.5809C5.7325 21.0752 7.65889 15.6725 11.5069 11.758C14.3808 8.83512 18.0409 6.96723 22.0915 6.35654C26.0063 5.76627 30.0837 6.437 33.5723 8.24553C33.8092 8.36837 33.836 8.6078 33.6491 8.81423L31.9616 10.5046C30.8407 11.6277 31.6132 13.6187 33.2494 13.6181H33.2534L42.0544 13.5998C43.062 13.5975 43.8813 12.7764 43.8807 11.7692L43.8716 2.98166C43.8866 1.36843 41.848 0.57934 40.7532 1.69818L38.6746 3.78022C38.5547 3.90042 38.3684 3.92464 38.2313 3.83803C32.999 0.533348 26.7344 -0.695347 20.5919 0.378578C20.1934 0.4482 19.9268 0.827657 19.9965 1.22606C20.0661 1.62456 20.4456 1.89113 20.844 1.82141C26.6281 0.810569 32.5251 1.96642 37.449 5.07629C38.1601 5.52576 39.1116 5.41601 39.7114 4.81508L41.7899 2.73305C42.0661 2.48522 42.3905 2.64351 42.407 2.98254L42.416 11.7705C42.4161 11.9712 42.2524 12.1346 42.0512 12.1351L33.2504 12.1534H33.2494C32.8983 12.1369 32.7542 11.807 32.9983 11.5395L34.6857 9.84919C35.5433 9.00093 35.312 7.49755 34.2465 6.94516C30.4854 4.99544 26.0912 4.27246 21.8732 4.90824C17.5063 5.56677 13.5606 7.58026 10.4624 10.7312C6.31302 14.9524 4.23547 20.7767 4.76277 26.7107C4.80612 27.1983 4.637 27.6724 4.29865 28.0111C3.84244 28.4679 3.20871 28.6097 2.6033 28.3909C2.00843 28.1757 1.61931 27.6723 1.56238 27.0441C0.933237 20.1045 3.37178 13.3069 8.25268 8.39386C10.8892 5.73932 14.0193 3.80473 17.556 2.6436C17.9404 2.51744 18.1496 2.10371 18.0235 1.71937C17.8973 1.33513 17.4838 1.12587 17.0992 1.25193C13.3406 2.4859 10.0144 4.54148 7.21352 7.36153C2.02679 12.5824 -0.564672 19.8045 0.103431 27.1761C0.211429 28.3673 0.978448 29.3606 2.10491 29.7681C2.45312 29.894 2.8108 29.9555 3.16409 29.9555C3.96411 29.9554 4.74168 29.6401 5.33508 29.0458C5.98033 28.3996 6.30355 27.5012 6.22172 26.5809ZM23.8334 40.0311C23.9371 40.082 24.047 40.1062 24.1554 40.1062C24.426 40.1062 24.6862 39.9556 24.8135 39.6963C25.7377 37.8128 26.7316 35.2105 27.2152 32.0716C29.0584 30.8909 31.9838 28.4773 32.6697 24.7438C33.1796 21.968 32.3681 18.9384 30.3851 16.2127C28.3544 13.4215 25.2345 11.2031 21.6004 9.96598C21.1695 9.81912 20.704 9.90524 20.3555 10.1961C20.0072 10.4867 19.8392 10.9287 19.9062 11.3784C20.1912 13.2907 19.7502 15.2342 18.9208 16.8272C18.6957 17.2596 18.463 17.7067 18.2318 18.2664C17.4496 20.1612 16.78 23.2359 17.4671 25.6643C18.0601 27.7602 19.7506 29.5606 22.3556 30.8707C23.671 31.5323 24.9474 31.9321 25.7204 32.1392C25.2486 34.9734 24.3429 37.33 23.4984 39.051C23.3203 39.4141 23.4702 39.8529 23.8334 40.0311ZM18.8765 25.2655C18.4819 23.871 18.5482 21.3387 19.5858 18.8252C19.7921 18.3255 20.0097 17.9076 20.22 17.5035C21.2207 15.5811 21.6829 13.7897 21.3934 11.4448C24.6302 12.601 27.3952 14.5926 29.2008 17.0742C30.9453 19.4721 31.6658 22.1019 31.229 24.4789C30.9971 25.7414 30.1911 28.0247 27.4389 30.1301C27.5951 28.1249 27.474 25.8623 27.135 23.8173C27.5117 23.4694 27.8369 23.0752 28.1036 22.6401C28.7815 21.5343 28.9274 20.4263 28.9304 19.6917C28.932 19.2873 28.6055 18.958 28.2009 18.9565H28.1979C27.7949 18.9565 27.4673 19.2824 27.4657 19.6859C27.4633 20.2666 27.2993 21.2256 26.757 22.0266C26.2818 20.1177 25.5865 18.261 24.673 16.4761C24.4886 16.116 24.0473 15.9736 23.6874 16.1579C23.3273 16.3421 23.1849 16.7834 23.3692 17.1434C24.5522 19.4547 25.3502 21.892 25.7505 24.4099C25.6229 24.2918 25.494 24.1754 25.3623 24.0623C24.4233 23.2558 23.3791 22.5738 22.259 22.0352C21.8948 21.86 21.4569 22.0135 21.2816 22.3779C21.1064 22.7424 21.2598 23.1801 21.6243 23.3554C22.6294 23.8384 23.5659 24.4502 24.408 25.1735C24.9888 25.6723 25.5264 26.2272 26.0095 26.8244C26.0865 28.1753 26.0456 29.4622 25.919 30.6748C24.0959 30.1631 19.8275 28.6266 18.8765 25.2655ZM49.2264 18.8817C48.9527 17.8072 48.1492 16.9902 47.0769 16.6963C45.9938 16.3996 44.8725 16.6972 44.0779 17.4929C43.3159 18.256 43.0073 19.3782 43.2724 20.4211C44.2814 24.3909 43.9536 28.6625 42.3492 32.449C42.1914 32.8213 42.3653 33.2512 42.7377 33.4089C43.1099 33.5668 43.5399 33.3929 43.6977 33.0204C45.4262 28.9412 45.7793 24.3385 44.6919 20.0603C44.5534 19.5149 44.7152 18.9277 45.1144 18.5278C45.532 18.1097 46.1214 17.9529 46.6897 18.109C47.2473 18.2618 47.665 18.6858 47.807 19.2433C48.9238 23.6269 48.7532 28.2249 47.3138 32.5404C45.8393 36.9616 43.1125 40.8025 39.4282 43.6476C35.1786 46.9283 29.8808 48.6608 24.5153 48.5265C19.2251 48.394 14.0935 46.4691 10.0651 43.1062C9.41888 42.5672 8.46155 42.5512 7.78886 43.0681L5.45626 44.8602C5.16381 45.0636 4.84733 44.8915 4.8777 44.5317L6.02515 35.814C6.05152 35.6145 6.23558 35.4732 6.43517 35.4994L15.1561 36.6365C15.5167 36.7022 15.5935 37.0489 15.3251 37.2788L13.4303 38.7342C12.4685 39.4594 12.4861 40.9731 13.4839 41.6712C16.9537 44.0988 21.2091 45.3919 25.4754 45.316C29.8887 45.236 34.0626 43.7565 37.546 41.0376C39.3044 39.6653 40.8107 38.0267 42.0229 36.1672C42.2438 35.8284 42.1481 35.3747 41.8093 35.1537C41.4701 34.9326 41.0168 35.0284 40.7958 35.3674C39.6721 37.091 38.2754 38.6103 36.6448 39.8831C33.4136 42.4051 29.5421 43.7774 25.4488 43.8516C21.4924 43.9203 17.5417 42.7227 14.323 40.4707C14.1085 40.3206 14.108 40.0761 14.3224 39.8959L16.2175 38.4403C17.4954 37.4757 16.8913 35.3705 15.3456 35.1841L6.62451 34.0469C5.62587 33.9169 4.70516 34.6235 4.57314 35.6225L3.42559 44.3408C3.32931 45.0742 3.68054 45.7868 4.32062 46.1564C4.96275 46.527 5.75848 46.4747 6.34827 46.0221L8.68135 44.2297C8.81533 44.1268 9.00281 44.1275 9.12682 44.231C13.4076 47.8046 18.8596 49.8501 24.4788 49.9908C30.1703 50.1334 35.8103 48.2923 40.3236 44.807C44.2388 41.7835 47.1365 37.702 48.7036 33.0039C50.2318 28.4214 50.4126 23.5381 49.2264 18.8817Z" fill="white"/>
</g>
<defs>
<clipPath id="clip0_3868_3539">
<rect width="50" height="50" fill="white"/>
</clipPath>
</defs>
</svg>
