<svg width="50" height="50" viewBox="0 0 50 50" fill="none" xmlns="http://www.w3.org/2000/svg">
<path d="M44.1775 48.535H11.3758C12.2832 47.0169 13.9345 46.0516 15.7554 46.0516C16.6611 46.0516 17.5505 46.2919 18.3278 46.7466C19.1917 47.2521 20.3074 46.9605 20.8148 46.0967C21.8929 44.2617 23.8832 43.1219 26.0092 43.1219C27.9597 43.1219 29.7977 44.0735 30.926 45.6672C31.3838 46.3141 32.1959 46.5852 32.9469 46.3423C33.5431 46.1493 34.1659 46.0515 34.7982 46.0515C35.9843 46.0515 37.1315 46.3959 38.1161 47.0476C38.4535 47.2708 38.9078 47.1783 39.1311 46.841C39.3544 46.5037 39.2619 46.0492 38.9246 45.826C37.6995 45.0152 36.2726 44.5866 34.7982 44.5866C34.0127 44.5866 33.238 44.7084 32.4958 44.9487C32.3599 44.9925 32.206 44.9402 32.1216 44.8208C31.1549 43.4552 29.7687 42.4692 28.2066 41.9881C28.2066 41.0942 28.2066 39.4419 28.2065 37.5455C29.65 37.1934 31.0505 36.6962 32.3801 36.0671C34.3236 36.8891 37.5292 37.4251 39.9329 36.3639C42.1006 35.4068 43.8141 33.4127 44.7576 30.749C45.7209 28.0292 45.7699 24.8326 44.8953 21.748C44.7867 21.3649 44.4929 21.0733 44.1094 20.9679C43.7286 20.8632 43.3302 20.9627 43.0437 21.2342C42.4118 21.8326 41.7089 22.3009 40.9544 22.6259C39.6814 23.1744 38.8621 23.0493 37.5801 23.3172C35.9112 23.6658 33.4821 24.6459 32.1287 26.2606C29.827 29.0067 30.9006 33.1782 31.4801 34.8708C30.2976 35.408 29.1796 35.7787 28.2065 36.0346C28.2064 32.4146 28.2062 28.4294 28.2058 27.1915C28.6796 26.7882 28.981 26.188 28.981 25.5185V23.6408C31.8738 22.4635 33.9192 19.623 33.9192 16.3121V9.23209C33.9172 8.25602 33.093 7.46989 32.1126 7.52312V2.4414C32.1126 1.09521 31.0174 0 29.6712 0C28.325 0 27.2298 1.09521 27.2298 2.4414V7.52312H24.7884V2.4414C24.7884 1.09521 23.6932 0 22.347 0C21.0008 0 19.9056 1.09521 19.9056 2.4414V7.52312C18.9326 7.49011 18.1007 8.2402 18.099 9.23209V16.3121C18.099 19.6227 20.1442 22.463 23.0366 23.6406V25.5185C23.0366 26.1716 23.3253 26.7798 23.812 27.1931V38.5063C22.8385 38.2502 21.7201 37.8794 20.5372 37.3419C20.7548 36.7035 21.044 35.7067 21.1957 34.5598C21.5149 32.1477 21.0631 30.1327 19.8895 28.7324C18.5361 27.1177 16.107 26.1376 14.438 25.789C13.1508 25.52 12.3374 25.6465 11.0637 25.0977C10.3095 24.7727 9.60652 24.3044 8.97449 23.706C8.68787 23.4347 8.28973 23.3351 7.90878 23.4397C7.52538 23.545 7.23153 23.8366 7.12294 24.2196C6.24833 27.3044 6.29726 30.5011 7.26063 33.2208C8.62225 37.0649 11.5343 39.4861 15.2769 39.4861C17.0108 39.4861 18.5828 38.9846 19.6382 38.5388C20.9678 39.1679 22.3683 39.6652 23.8118 40.0171V41.9901C22.0472 42.5355 20.5094 43.7241 19.5515 45.3546C19.4508 45.5262 19.2379 45.5821 19.0671 45.4821C18.0658 44.8963 16.9205 44.5866 15.755 44.5866C13.1234 44.5866 10.7658 46.1528 9.73152 48.5349H5.21289C4.8084 48.5349 4.48047 48.8628 4.48047 49.2673C4.48047 49.6718 4.8084 49.9997 5.21289 49.9997H10.2306C10.2314 49.9997 10.2322 49.9999 10.233 49.9999C10.2338 49.9999 10.2346 49.9997 10.2354 49.9997H44.1775C44.582 49.9997 44.9099 49.6718 44.9099 49.2673C44.9099 48.8628 44.582 48.535 44.1775 48.535ZM33.2515 27.2017C34.293 25.9592 36.3264 25.0756 37.8799 24.7511C38.309 24.6614 38.6905 24.6164 39.0594 24.5729C39.7898 24.4866 40.545 24.3975 41.5342 23.9712C42.2797 23.65 42.9812 23.2155 43.6258 22.6765C44.2704 25.3038 44.1854 27.9773 43.3768 30.26C42.5694 32.5395 41.1362 34.2314 39.3412 35.024C38.4274 35.4274 36.6364 35.9056 34.1204 35.1446C34.8755 34.6985 35.5995 34.2063 36.2885 33.6728C36.3388 33.6417 36.3861 33.6056 36.428 33.5629C36.5076 33.5001 36.5883 33.4386 36.6668 33.3747C37.1261 33.001 37.5673 32.6087 37.9916 32.2003C38.3182 32.2708 38.6495 32.307 38.9821 32.307C39.0562 32.307 39.1305 32.3052 39.2047 32.3017C40.2993 32.2496 41.1419 31.8253 41.6561 31.4785C41.9916 31.2523 42.08 30.7971 41.8538 30.4618C41.6276 30.1263 41.1724 30.0379 40.837 30.2641C40.5041 30.4887 39.9751 30.7594 39.2973 30.8263C40.2948 29.6763 41.1704 28.4163 41.9146 27.0555C42.1087 26.7006 41.9784 26.2556 41.6235 26.0614C41.2687 25.8673 40.8236 25.9977 40.6295 26.3525C39.6737 28.1002 38.4861 29.6689 37.0888 31.0357C37.091 31.0176 37.0936 30.9994 37.0957 30.9812C37.2108 29.9594 37.1913 28.9235 37.0377 27.9026C36.9775 27.5025 36.6045 27.2271 36.2045 27.2873C35.8045 27.3475 35.529 27.7205 35.5891 28.1205C35.7237 29.0151 35.7409 29.9224 35.64 30.8174C35.5721 31.4205 35.4498 32.0206 35.2761 32.6046C34.4532 33.2324 33.6217 33.762 32.8055 34.2082C32.6214 33.6395 32.3968 32.8182 32.2747 31.8959C32.0072 29.8734 32.3358 28.294 33.2515 27.2017ZM26.0092 41.6571C25.7634 41.6571 25.5191 41.6694 25.277 41.6935V39.4428C25.277 39.4414 25.277 39.4398 25.277 39.4383V27.7157H26.7411C26.7414 29.4866 26.7416 33.5438 26.7417 36.9683V36.9701C26.7417 38.9398 26.7418 40.6989 26.7418 41.6938C26.4995 41.6699 26.2552 41.6571 26.0092 41.6571ZM27.5162 25.5185C27.5162 25.9224 27.1877 26.2509 26.7838 26.2509H25.234C24.8339 26.2524 24.4998 25.9164 24.5016 25.5185V24.0765C24.99 24.1711 25.4936 24.2224 26.0092 24.2224C26.5245 24.2224 27.028 24.1712 27.5162 24.0767V25.5185ZM28.6947 2.4414C28.6947 1.90292 29.1328 1.46484 29.6713 1.46484C30.2098 1.46484 30.6478 1.90292 30.6478 2.4414V7.52312H28.6947V2.4414ZM21.3705 2.4414C21.3705 1.90292 21.8086 1.46484 22.3471 1.46484C22.8856 1.46484 23.3237 1.90292 23.3237 2.4414V7.52312H21.3705V2.4414ZM19.5639 16.3121V12.4059H26.5902C26.9947 12.4059 27.3227 12.078 27.3227 11.6735C27.3227 11.269 26.9947 10.9411 26.5902 10.9411H19.5639V9.23209C19.5639 9.09752 19.6735 8.98795 19.808 8.98795H32.2103C32.3449 8.98795 32.4545 9.09752 32.4545 9.23209V10.9411H30.0131C29.6086 10.9411 29.2807 11.269 29.2807 11.6735C29.2807 12.078 29.6086 12.4059 30.0131 12.4059H32.4545V16.3121C32.4545 19.8661 29.5632 22.7574 26.0092 22.7574C22.4552 22.7574 19.5639 19.8661 19.5639 16.3121ZM19.7437 34.3676C19.6217 35.2899 19.3971 36.1111 19.213 36.6797C18.3968 36.2335 17.5652 35.7038 16.7421 35.0759C16.5686 34.4921 16.4462 33.8922 16.3784 33.289C16.2776 32.3941 16.2948 31.4868 16.4292 30.5923C16.4894 30.1923 16.2139 29.8192 15.8139 29.7591C15.4137 29.6987 15.0408 29.9744 14.9807 30.3744C14.8271 31.3954 14.8076 32.4312 14.9226 33.453C14.9247 33.4712 14.9273 33.4893 14.9295 33.5075C13.532 32.1408 12.3446 30.572 11.3893 28.8245C11.1953 28.4695 10.7504 28.3391 10.3954 28.5331C10.0404 28.7271 9.90994 29.1722 10.104 29.527C10.8479 30.888 11.7233 32.148 12.7208 33.298C12.043 33.231 11.5142 32.9603 11.1813 32.7358C10.8459 32.5095 10.3907 32.598 10.1645 32.9334C9.93836 33.2687 10.0268 33.724 10.3621 33.9502C10.8762 34.2969 11.7189 34.7213 12.8136 34.7735C12.8879 34.777 12.9621 34.7788 13.0363 34.7788C13.3689 34.7788 13.7001 34.7424 14.0267 34.672C14.4512 35.0805 14.8924 35.473 15.352 35.8465C15.4302 35.9101 15.5104 35.9712 15.5896 36.0337C15.6321 36.0772 15.68 36.1139 15.7313 36.1454C16.4199 36.6786 17.1436 37.1705 17.8982 37.6163C15.3821 38.3774 13.5909 37.8991 12.6771 37.4957C10.8822 36.7031 9.44891 35.0112 8.64149 32.7316C7.8329 30.4489 7.74803 27.7755 8.39247 25.148C9.03719 25.6872 9.73865 26.1216 10.4841 26.4428C11.4733 26.869 12.2286 26.9582 12.9589 27.0444C13.3278 27.088 13.7092 27.133 14.1384 27.2226C15.6919 27.5472 17.7253 28.4308 18.7667 29.6732C19.6827 30.7657 20.0112 32.3451 19.7437 34.3676Z" fill="white"/>
</svg>
