<svg width="50" height="50" viewBox="0 0 50 50" fill="none" xmlns="http://www.w3.org/2000/svg">
<g clip-path="url(#clip0_3868_3518)">
<path d="M33.8233 12.5432C32.4178 12.5432 31.2743 13.6867 31.2743 15.0922C31.2743 16.4977 32.4178 17.6413 33.8233 17.6413H43.9071C45.3126 17.6413 46.4561 16.4977 46.4561 15.0922C46.4561 14.7041 46.3689 14.336 46.2131 14.0064H47.4508C48.8564 14.0064 49.9999 12.8629 49.9999 11.4574C49.9999 10.0519 48.8564 8.90833 47.4508 8.90833H37.3672C35.9616 8.90833 34.8181 10.0519 34.8181 11.4574C34.8181 11.8456 34.9054 12.2135 35.0611 12.5432H33.8233ZM37.3672 12.5432C36.7685 12.5432 36.2814 12.0561 36.2814 11.4574C36.2814 10.8587 36.7685 10.3716 37.3672 10.3716H47.4509C48.0497 10.3716 48.5367 10.8587 48.5367 11.4574C48.5367 12.0561 48.0497 12.5432 47.4509 12.5432H43.9071C43.5031 12.5432 43.1755 12.8706 43.1755 13.2748C43.1755 13.6789 43.5031 14.0064 43.9071 14.0064C44.5058 14.0064 44.9928 14.4935 44.9928 15.0922C44.9928 15.691 44.5058 16.1781 43.9071 16.1781H33.8233C33.2247 16.1781 32.7376 15.691 32.7376 15.0922C32.7376 14.4935 33.2247 14.0064 33.8233 14.0064H37.3672C37.7713 14.0064 38.0989 13.6789 38.0989 13.2748C38.0989 12.8706 37.7713 12.5432 37.3672 12.5432ZM49.2141 48.5138H47.356C46.0108 45.5722 44.8715 42.5368 44.0211 39.4205C43.9148 39.0307 43.5123 38.8007 43.1228 38.9072C42.733 39.0135 42.5032 39.4157 42.6095 39.8055C43.4219 42.7841 44.4862 45.7022 45.7573 48.5138H35.4546C32.9792 43.1624 31.1051 37.4895 30.0067 31.6926C29.86 30.9185 29.7282 30.1414 29.608 29.3626H40.7824C40.9738 31.735 41.3121 34.0967 41.7967 36.4229C41.8797 36.8212 42.2745 37.0707 42.6622 36.9899C43.0577 36.9075 43.3117 36.52 43.2292 36.1245C42.3017 31.6723 41.9217 27.0932 42.104 22.5467C42.1333 21.8161 41.5336 21.1116 40.7301 21.1176H28.8345C28.7727 19.3462 28.7734 17.5712 28.853 15.8006C28.8876 15.0326 28.2456 14.3673 27.4796 14.371H10.6735C9.87863 14.3395 9.27733 15.2627 9.30006 15.8007C9.52472 21.1179 9.13695 26.4648 8.14633 31.6925C7.0446 37.507 5.17826 43.1446 2.69844 48.5137H0.731627C0.327574 48.5137 0 48.8411 0 49.2453C0 49.6494 0.327574 49.9769 0.731627 49.9769C0.734749 49.9759 49.2077 49.9769 49.2141 49.9769C49.6182 49.9769 49.9458 49.6494 49.9458 49.2453C49.9458 48.8411 49.6182 48.5138 49.2141 48.5138ZM40.6381 22.581C40.5705 24.3523 40.5877 26.129 40.6824 27.8994H29.397C29.1641 26.1445 28.9991 24.3802 28.9005 22.6124C28.8999 22.602 28.8994 22.5914 28.8988 22.581H40.6381ZM4.29699 48.5138C6.70795 43.2216 8.50161 37.6772 9.58393 31.965C10.0648 29.4276 10.405 26.8623 10.6066 24.2861H20.7682C21.1722 24.2861 21.4998 23.9586 21.4998 23.5544C21.4998 23.1503 21.1722 22.8228 20.7682 22.8228H10.7067C10.8407 20.4975 10.8605 18.1616 10.7658 15.8343H27.3873C27.2891 18.1597 27.3148 20.4994 27.4463 22.8228H24.1826C23.7786 22.8228 23.451 23.1503 23.451 23.5544C23.451 23.9586 23.7786 24.2861 24.1826 24.2861H27.5464C27.6616 25.7579 27.8224 27.2261 28.0289 28.6876C28.0315 28.72 28.0356 28.7519 28.0421 28.783C28.194 29.8476 28.3689 30.9089 28.5691 31.965C29.6505 37.6723 31.4444 43.2308 33.856 48.5138H4.29699ZM18.4577 8.76415H28.5415C29.947 8.76415 31.0905 7.62057 31.0905 6.21506C31.0905 5.82691 31.0032 5.45885 30.8475 5.12923H32.0852C33.4907 5.12923 34.6342 3.98574 34.6342 2.58024C34.6342 1.17473 33.4908 0.03125 32.0853 0.03125H22.0015C20.596 0.03125 19.4525 1.17483 19.4525 2.58034C19.4525 2.96849 19.5397 3.33645 19.6955 3.66607H18.4578C17.0523 3.66607 15.9088 4.80965 15.9088 6.21516C15.9088 7.62066 17.0522 8.76415 18.4577 8.76415ZM18.4577 5.12933H22.0015C22.4056 5.12933 22.7331 4.80185 22.7331 4.3977C22.7331 3.99355 22.4056 3.66607 22.0015 3.66607C21.4028 3.66607 20.9158 3.179 20.9158 2.58034C20.9158 1.98157 21.4028 1.4945 22.0015 1.4945H32.0853C32.6839 1.4945 33.171 1.98157 33.171 2.58034C33.171 3.179 32.6839 3.66607 32.0853 3.66607H28.5415C28.1374 3.66607 27.8098 3.99355 27.8098 4.3977C27.8098 4.80185 28.1374 5.12933 28.5415 5.12933C29.1401 5.12933 29.6272 5.6164 29.6272 6.21516C29.6272 6.81392 29.1401 7.3009 28.5415 7.3009H18.4577C17.859 7.3009 17.372 6.81383 17.372 6.21506C17.372 5.6163 17.859 5.12933 18.4577 5.12933ZM18.658 27.3774C18.3023 27.1732 17.8751 27.1685 17.5151 27.365C17.1562 27.5611 16.9299 27.9218 16.9097 28.3298C16.8765 29.0014 16.74 29.6425 16.5042 30.2353C16.0763 31.3114 15.5125 31.7257 14.9036 32.6565C14.1015 33.8825 13.2212 35.9563 13.3806 37.766C13.613 40.4048 15.9417 42.2885 18.188 43.396C18.0493 43.7845 17.8965 44.1688 17.7267 44.5474C17.5615 44.9161 17.7264 45.349 18.0951 45.5143C18.4561 45.6761 18.8947 45.5192 19.062 45.146C19.2969 44.622 19.5042 44.0883 19.6848 43.547C21.1456 42.9348 23.3916 41.6321 24.3428 39.1764C25.0721 37.2938 24.9138 35.0612 23.897 32.8897C22.8636 30.6828 21.0031 28.7252 18.658 27.3774ZM22.9783 38.6478C22.6897 39.3926 21.9646 40.6545 20.1936 41.6718C20.4229 40.5877 20.5462 39.4753 20.5615 38.368L21.8772 36.8156C22.1385 36.5074 22.1004 36.0457 21.7921 35.7844C21.4838 35.5233 21.0221 35.5613 20.7609 35.8695L20.457 36.228C20.3482 35.26 20.1568 34.299 19.882 33.3507C19.7695 32.9626 19.3636 32.739 18.9757 32.8518C18.5875 32.9641 18.3641 33.3699 18.4766 33.7581C18.8638 35.0941 19.0713 36.4573 19.0978 37.8293C18.6484 37.3134 18.1435 36.8462 17.591 36.4382C17.2658 36.1981 16.8078 36.2669 16.5678 36.5921C16.3278 36.9172 16.3966 37.3752 16.7217 37.6152C17.2808 38.0282 17.7832 38.5119 18.2148 39.0529C18.4965 39.4061 18.7468 39.7865 18.9651 40.184C18.8854 40.7877 18.7693 41.3847 18.6203 41.9737C16.9352 41.1086 14.9891 39.352 14.8382 37.6378C14.7198 36.293 15.4008 34.5694 16.1281 33.4577C16.7766 32.4666 17.352 32.0631 17.8639 30.7762C18.1014 30.1792 18.2582 29.5459 18.332 28.8879C20.2281 30.0723 21.7241 31.6996 22.5719 33.5102C23.4176 35.3166 23.562 37.1411 22.9783 38.6478Z" fill="white"/>
</g>
<defs>
<clipPath id="clip0_3868_3518">
<rect width="50" height="50" fill="white"/>
</clipPath>
</defs>
</svg>
