<svg width="50" height="50" viewBox="0 0 50 50" fill="none" xmlns="http://www.w3.org/2000/svg">
<g clip-path="url(#clip0_3868_3532)">
<path d="M49.2677 46.5778C47.0777 46.5778 45.923 47.1353 44.9044 47.6272C43.942 48.092 43.0329 48.531 41.1781 48.531C39.3233 48.531 38.4143 48.092 37.4519 47.6272C36.4332 47.1353 35.2786 46.5778 33.0886 46.5778C30.8987 46.5778 29.7441 47.1353 28.7255 47.6272C27.7631 48.092 26.8541 48.531 24.9994 48.531C23.1448 48.531 22.2358 48.092 21.2734 47.6272C20.2548 47.1353 19.1003 46.5778 16.9104 46.5778C14.7206 46.5778 13.566 47.1353 12.5474 47.6272C11.5851 48.092 10.6761 48.531 8.82139 48.531C6.9667 48.531 6.05771 48.092 5.09541 47.6272C4.07676 47.1353 2.92227 46.5778 0.732422 46.5778C0.32793 46.5778 0 46.9057 0 47.3103C0 47.7148 0.32793 48.0427 0.732422 48.0427C2.58711 48.0427 3.49609 48.4816 4.4584 48.9464C5.47705 49.4383 6.63154 49.9958 8.82139 49.9958C11.0112 49.9958 12.1657 49.4383 13.1844 48.9464C14.1468 48.4816 15.0558 48.0427 16.9104 48.0427C18.7651 48.0427 19.6741 48.4816 20.6364 48.9464C21.6551 49.4383 22.8096 49.9958 24.9993 49.9958C27.1892 49.9958 28.3437 49.4383 29.3624 48.9464C30.3248 48.4816 31.2338 48.0427 33.0885 48.0427C34.9433 48.0427 35.8523 48.4816 36.8147 48.9464C37.8334 49.4383 38.988 49.9958 41.178 49.9958C43.3681 49.9958 44.5227 49.4383 45.5413 48.9464C46.5037 48.4816 47.4128 48.0427 49.2676 48.0427C49.6721 48.0427 50 47.7148 50 47.3103C50 46.9057 49.6722 46.5778 49.2677 46.5778ZM49.2677 37.4269C47.0777 37.4269 45.923 37.9844 44.9044 38.4763C43.942 38.941 43.0329 39.38 41.1781 39.38C39.3233 39.38 38.4143 38.941 37.4519 38.4763C36.4912 38.0124 35.4092 37.4903 33.4524 37.4324L35.2541 35.6307C35.5401 35.3446 35.5401 34.8809 35.2541 34.5949C34.9681 34.309 34.5043 34.3089 34.2184 34.595L31.2265 37.5871C30.1519 37.7882 29.4079 38.1469 28.7256 38.4764C27.7632 38.9411 26.8542 39.3801 24.9995 39.3801C23.1449 39.3801 22.2359 38.9411 21.2735 38.4764C20.2549 37.9845 19.1004 37.4269 16.9105 37.4269C16.6666 37.4269 16.4362 37.4342 16.2168 37.4472L10.3579 31.5883C11.612 31.4034 12.4354 31.0064 13.1846 30.6446C14.147 30.1799 15.056 29.7409 16.9106 29.7409C18.7653 29.7409 19.6743 30.1799 20.6366 30.6446C21.6553 31.1365 22.8098 31.694 24.9995 31.694C27.1894 31.694 28.3439 31.1365 29.3626 30.6446C30.325 30.1799 31.234 29.7409 33.0887 29.7409C34.9435 29.7409 35.8525 30.1799 36.8149 30.6446C37.1066 30.7854 37.4096 30.9316 37.7447 31.0687L36.6084 32.2051C36.3224 32.4911 36.3224 32.9549 36.6084 33.2408C36.8944 33.5268 37.3582 33.5269 37.6441 33.2407L39.3454 31.5394C39.8683 31.6352 40.4687 31.694 41.1782 31.694C43.3682 31.694 44.5228 31.1365 45.5415 30.6446C46.5039 30.1799 47.413 29.7409 49.2678 29.7409C49.6723 29.7409 50.0002 29.4131 50.0002 29.0085C50.0002 28.6039 49.6723 28.2761 49.2678 28.2761C47.0778 28.2761 45.9231 28.8336 44.9045 29.3255C43.9421 29.7902 43.033 30.2292 41.1782 30.2292C40.999 30.2292 40.8311 30.2239 40.6687 30.2161L49.5708 21.3137C49.8476 21.037 50 20.6688 50 20.2772C50 19.8855 49.8476 19.5175 49.5708 19.2408L46.8727 16.5427C46.596 16.2659 46.2278 16.1135 45.8361 16.1135C45.4445 16.1135 45.0764 16.2659 44.7997 16.5426L38.1636 23.1764L26.8198 11.8312L33.4535 5.19658C34.0201 4.63535 34.0173 3.68184 33.4535 3.12363L30.7554 0.425293C30.1942 -0.141406 29.2433 -0.141113 28.6824 0.425293L23.0185 6.08926C22.6084 4.76045 21.8791 3.54277 20.8678 2.53154C17.4924 -0.843847 12 -0.843847 8.62461 2.53154C6.98945 4.1666 6.08896 6.34053 6.08896 8.65303C6.08896 10.9654 6.98945 13.1395 8.62461 14.7746C9.65488 15.8049 10.8829 16.5189 12.1872 16.9203L9.78359 19.3236C9.49756 19.6097 9.49756 20.0734 9.78359 20.3595C10.0696 20.6455 10.5333 20.6455 10.8194 20.3595L13.913 17.2663C16.4339 17.5084 18.9702 16.6722 20.8679 14.7746C22.503 13.1395 23.4035 10.9655 23.4035 8.65303C23.4035 8.37168 23.3896 8.09248 23.3633 7.81601L29.7196 1.46103L32.4178 4.16064L25.785 10.7944C25.5071 11.0712 25.3542 11.4396 25.3542 11.8318C25.3542 12.2239 25.5071 12.5924 25.7841 12.8683L37.1269 24.2111C37.4037 24.489 37.7722 24.6419 38.1643 24.6419C38.5564 24.6419 38.9248 24.489 39.2007 24.2121L45.8368 17.5783L48.5351 20.2779L38.8897 29.9236C38.3522 29.759 37.9075 29.5455 37.4519 29.3255C36.4333 28.8336 35.2787 28.2761 33.0887 28.2761C30.8988 28.2761 29.7442 28.8336 28.7256 29.3255C27.7632 29.7902 26.8542 30.2292 24.9995 30.2292C23.1449 30.2292 22.2359 29.7902 21.2735 29.3255C20.2549 28.8336 19.1004 28.2761 16.9105 28.2761C14.7207 28.2761 13.5661 28.8336 12.5475 29.3255C11.6163 29.7752 10.7324 30.1995 8.99609 30.2266L6.01211 27.2426C5.43965 26.6702 5.43965 25.7387 6.01211 25.1661L8.51924 22.6594C8.80527 22.3733 8.80537 21.9096 8.51934 21.6236C8.2334 21.3376 7.76963 21.3375 7.48359 21.6235L4.97637 24.1304C3.83281 25.274 3.83281 27.1349 4.97637 28.2785L6.65898 29.9611C6.06367 29.7924 5.58613 29.5625 5.09551 29.3256C4.07685 28.8337 2.92236 28.2762 0.732519 28.2762C0.328027 28.2762 9.76562e-05 28.604 9.76562e-05 29.0086C9.76562e-05 29.4132 0.328027 29.741 0.732519 29.741C2.58721 29.741 3.49619 30.18 4.4585 30.6447C5.40693 31.1027 6.47373 31.6174 8.38389 31.6861L14.4266 37.7288C13.6711 37.9339 13.0899 38.2144 12.5474 38.4765C11.5851 38.9412 10.6761 39.3802 8.82139 39.3802C6.9667 39.3802 6.05771 38.9412 5.09541 38.4765C4.07676 37.9846 2.92227 37.427 0.732422 37.427C0.32793 37.427 0 37.7549 0 38.1595C0 38.5641 0.32793 38.8919 0.732422 38.8919C2.58711 38.8919 3.49609 39.3309 4.4584 39.7956C5.47705 40.2875 6.63154 40.845 8.82139 40.845C11.0112 40.845 12.1657 40.2875 13.1844 39.7956C13.903 39.4485 14.5923 39.1161 15.6675 38.9698L21.7175 45.0198C22.2893 45.5915 23.0404 45.8774 23.7915 45.8774C24.5426 45.8774 25.2937 45.5915 25.8655 45.0197L31.9248 38.9602C32.2695 38.9169 32.6521 38.8919 33.0885 38.8919C34.9433 38.8919 35.8523 39.3309 36.8147 39.7956C37.8334 40.2875 38.988 40.845 41.178 40.845C43.3681 40.845 44.5227 40.2875 45.5413 39.7956C46.5037 39.3309 47.4128 38.8919 49.2676 38.8919C49.6721 38.8919 50 38.5641 50 38.1595C50 37.7549 49.6722 37.4269 49.2677 37.4269ZM7.55381 8.65303C7.55381 6.73183 8.30195 4.92568 9.66035 3.56719C12.2763 0.951269 16.4519 0.763477 19.2878 3.07549L9.16865 13.1947C8.12275 11.9151 7.55381 10.3279 7.55381 8.65303ZM19.832 13.7388C17.2025 16.3682 13.0269 16.532 10.2045 14.2305L20.3237 4.11133C21.3696 5.39092 21.9386 6.97822 21.9386 8.65303C21.9386 10.5742 21.1904 12.3804 19.832 13.7388ZM24.8299 43.9838C24.2573 44.5563 23.3258 44.5561 22.7533 43.9838L17.6913 38.9218C19.0402 39.0268 19.8203 39.4014 20.6365 39.7955C21.6552 40.2874 22.8097 40.8449 24.9994 40.8449C26.7425 40.8449 27.8293 40.4917 28.7141 40.0995L24.8299 43.9838Z" fill="white"/>
</g>
<defs>
<clipPath id="clip0_3868_3532">
<rect width="50" height="50" fill="white"/>
</clipPath>
</defs>
</svg>
