<svg width="45" height="45" viewBox="0 0 45 45" fill="none" xmlns="http://www.w3.org/2000/svg">
<g clip-path="url(#clip0_3868_20)">
<path d="M24.5805 25.7864C25.9477 25.3811 27.1079 24.269 27.9358 22.5703C28.3184 21.785 28.5553 21.036 28.6892 20.5321C29.0571 20.5848 29.4238 20.6508 29.7885 20.7327C30.1432 20.8125 30.4964 20.5894 30.5762 20.2341C30.656 19.879 30.4327 19.5263 30.0776 19.4465C29.5726 19.3331 29.0644 19.2458 28.554 19.1835C27.7515 18.0035 26.1984 16.254 23.8595 15.8546C22.0668 15.5483 20.1235 16.0884 18.3887 17.3758C16.6255 18.6838 15.2309 20.6778 14.4615 22.9902C14.2204 23.7148 14.8504 24.4798 15.6158 24.363C16.7589 24.1886 17.8716 24.4254 18.8701 24.9293C20.4718 25.7376 22.6575 26.3565 24.5805 25.7864ZM19.4641 23.7524C18.4571 23.244 17.1205 22.8851 15.8534 23.0071C16.559 21.1206 17.7276 19.5078 19.1742 18.4345C20.6174 17.3636 22.2031 16.9091 23.6375 17.1541C24.3469 17.2753 25.5913 17.6893 26.8071 19.0705C25.8086 19.0626 24.8044 19.1529 23.8239 19.3383L22.2172 18.4551C21.898 18.2797 21.4974 18.3961 21.3219 18.7151C21.1465 19.0342 21.263 19.4349 21.582 19.6104L21.9531 19.8144C21.1179 20.0841 20.3037 20.4254 19.5158 20.8382C19.1932 21.0071 19.0688 21.4054 19.2377 21.728C19.4085 22.0541 19.8104 22.1721 20.1274 22.0061C21.2376 21.4245 22.404 20.9968 23.6106 20.7274C23.2358 21.2167 22.9139 21.7463 22.6527 22.3073C22.499 22.6373 22.642 23.0295 22.9721 23.1831C23.2953 23.3336 23.6923 23.1977 23.8478 22.8637C24.1122 22.2959 24.4492 21.7655 24.8494 21.2876C25.1109 20.9754 25.4019 20.6861 25.7136 20.4221C26.2609 20.3842 26.8089 20.3798 27.3557 20.4056C27.2322 20.8329 27.0377 21.4037 26.7506 21.993C26.0795 23.3699 25.2234 24.221 24.2057 24.5227C22.7071 24.9668 20.8137 24.4336 19.4641 23.7524ZM39.2818 41.4401L38.4143 29.9761C38.3851 29.6132 38.067 29.3429 37.7045 29.3718C37.3416 29.401 37.0711 29.7188 37.1003 30.0817L37.9677 41.5458C38.0125 42.1024 37.8285 42.6349 37.4498 43.0453C37.071 43.4556 36.5549 43.6817 35.9965 43.6817H9.00279C8.44433 43.6817 7.92824 43.4557 7.54952 43.0453C7.1708 42.6349 6.98694 42.1024 7.03158 41.5458L9.30952 13.1901C9.35514 12.6234 9.83616 12.1794 10.4047 12.1794H34.5947C35.1632 12.1794 35.6443 12.6234 35.6899 13.1901L36.8 27.0092C36.8292 27.3721 37.147 27.642 37.5098 27.6135C37.8727 27.5843 38.1432 27.2665 38.1141 26.9036L37.0039 13.0844C36.9037 11.8376 35.8454 10.861 34.5947 10.861H31.4751V3.65723C31.4751 3.62928 31.5024 3.41175 31.279 3.18834L28.29 0.195935C28.2281 0.130632 28.1252 0.000202907 27.8211 0.000202907H16.205C16.1277 0.000202907 15.9343 -0.0139474 15.7381 0.194089L12.7456 3.19009C12.6481 3.29644 12.5482 3.44805 12.5514 3.65732V10.8611H10.4047C9.15396 10.8611 8.09567 11.8377 7.99548 13.0845L5.71754 41.4401C5.64406 42.3544 5.95862 43.2653 6.58062 43.9394C7.20271 44.6134 8.08547 45 9.00279 45H35.9966C36.9139 45 37.7966 44.6135 38.4188 43.9394C39.0407 43.2653 39.3553 42.3544 39.2818 41.4401ZM28.4806 2.2523L30.1567 3.93039V10.861H28.4806V2.2523ZM16.8641 1.31847H27.1622V2.99796H16.8641V1.31847ZM13.8697 3.93022L15.5458 2.25213V8.44373C15.5458 8.80778 15.8408 9.10291 16.205 9.10291C16.5691 9.10291 16.8641 8.80778 16.8641 8.44373V4.31641H27.1622V10.861H13.8697V3.93022ZM9.90612 34.7756C11.4929 38.7102 16.887 39.9778 20.9124 39.0301C21.6575 38.8547 21.9721 37.9126 21.4752 37.3269C21.0833 36.8651 20.778 36.3595 20.5677 35.8245C20.3315 35.2229 20.2952 34.798 20.2493 34.2599C20.2242 33.9648 20.1957 33.6302 20.1285 33.2467C19.9005 31.9466 19.2016 30.0409 17.9819 28.9492C15.9198 27.1037 12.6972 27.8021 11.3527 28.2093C11.2045 27.8685 11.0684 27.5219 10.9467 27.1687C10.8283 26.8245 10.4539 26.6415 10.1089 26.7599C9.76471 26.8784 9.58172 27.2535 9.7002 27.5977C9.86859 28.087 10.0611 28.5655 10.2759 29.0326C9.69272 30.335 9.01878 32.5753 9.90612 34.7756ZM11.0965 30.5789C11.6136 31.4337 12.2264 32.2402 12.8902 32.9776L12.9816 34.8087C12.9991 35.1611 13.2904 35.435 13.6393 35.435C14.0149 35.435 14.3175 35.119 14.2982 34.743L14.2771 34.32C14.945 34.8894 15.6628 35.4033 16.4278 35.8574C16.7355 36.0401 17.1434 35.9435 17.3312 35.6271C17.517 35.314 17.4139 34.9096 17.1009 34.7237C16.0232 34.084 15.047 33.3156 14.1844 32.43C14.7986 32.4925 15.4178 32.4882 16.0319 32.4162C16.3935 32.3737 16.6522 32.0462 16.6098 31.6846C16.5673 31.3231 16.2395 31.0639 15.8783 31.1069C15.2562 31.1798 14.6279 31.1714 14.0109 31.0815C13.6081 31.0228 13.209 30.9269 12.8207 30.8C12.5012 30.3541 12.2098 29.89 11.9449 29.4111C12.3737 29.2919 12.9618 29.1578 13.6136 29.093C15.1381 28.9419 16.3116 29.2236 17.1026 29.9315C18.2586 30.966 18.8087 32.8804 18.9356 34.3718C18.984 34.9394 19.034 35.5262 19.3405 36.3065C19.5523 36.8454 19.8393 37.3583 20.1961 37.8364C16.8369 38.5174 12.4304 37.5091 11.1287 34.2825C10.8596 33.6151 10.5589 32.3389 11.0965 30.5789ZM25.1303 39.0627C25.3268 39.3731 25.736 39.4593 26.0399 39.267C26.4768 38.9904 26.8965 38.6915 27.3012 38.3749C27.8014 38.4703 28.4187 38.5498 29.0969 38.5498C30.3186 38.5498 31.7306 38.2927 32.9767 37.4102C34.4611 36.3589 35.4529 34.603 35.7694 32.466C36.0912 30.2943 35.6675 27.8982 34.5764 25.719C34.2306 25.0284 33.2441 24.9467 32.7894 25.5646C32.4303 26.0526 32.0089 26.4663 31.5369 26.7943C30.688 27.3841 30.0425 27.4239 29.13 27.8166C27.9175 28.3385 26.2244 29.4583 25.444 30.8969C24.1243 33.3288 25.5473 36.3034 26.2536 37.5178C25.9564 37.7406 25.6505 37.9532 25.3348 38.1531C25.027 38.3478 24.9355 38.7551 25.1303 39.0627ZM26.6026 31.5257C27.1826 30.4567 28.5516 29.5008 29.6511 29.0276C30.6365 28.6036 31.2609 28.5912 32.2891 27.877C32.7644 27.5468 33.1973 27.1491 33.5801 26.6914C34.4151 28.5243 34.7292 30.4909 34.4652 32.2728C34.2019 34.0505 33.4025 35.4929 32.2146 36.3342C31.6272 36.7504 30.4537 37.3378 28.6159 37.2202C29.3385 36.5192 29.9652 35.7473 30.5385 34.9216L32.2992 34.41C32.6488 34.3085 32.8498 33.9427 32.7482 33.5932C32.6467 33.2435 32.2811 33.0424 31.9313 33.1441L31.5247 33.2622C31.9246 32.4808 32.2589 31.6638 32.5242 30.8148C32.6328 30.4673 32.4391 30.0976 32.0916 29.989C31.7441 29.8807 31.3745 30.0741 31.2658 30.4216C30.8919 31.6178 30.3696 32.745 29.7069 33.7888C29.626 33.1778 29.4792 32.5756 29.2672 31.9942C29.1425 31.6522 28.7643 31.476 28.4221 31.6007C28.0801 31.7254 27.9039 32.1038 28.0287 32.4459C28.2432 33.0343 28.3799 33.6476 28.4349 34.2688C28.4707 34.6737 28.4697 35.0834 28.4359 35.4899C28.0754 35.9041 27.6911 36.2951 27.286 36.6638C27.0711 36.2741 26.805 35.7331 26.5917 35.1141C26.0927 33.666 26.0963 32.4586 26.6026 31.5257Z" fill="#77B80F"/>
</g>
<defs>
<clipPath id="clip0_3868_20">
<rect width="45" height="45" fill="white"/>
</clipPath>
</defs>
</svg>
