<svg width="46" height="45" viewBox="0 0 46 45" fill="none" xmlns="http://www.w3.org/2000/svg">
<path d="M42.6932 29.5792C42.9101 28.5846 43.021 27.5724 43.021 26.5577C43.021 17.4947 34.4013 10.0826 23.6488 9.73499V6.71351H24.758C27.7085 6.71351 30.109 4.70885 30.109 2.24478V1.01077C30.109 0.453438 29.5661 0 28.8987 0H27.4211C24.9264 0 22.8252 1.43327 22.2355 3.3655C21.2568 2.47682 19.8541 1.9187 18.2977 1.9187H16.8201C16.1528 1.9187 15.6098 2.37214 15.6098 2.92946V4.16348C15.6098 6.62755 18.0103 8.6322 20.9608 8.6322H22.0701V9.73517C9.74122 10.1156 0.825815 19.4929 3.02562 29.5792C1.55873 29.63 0.359375 30.6835 0.359375 31.9138C0.359375 33.0041 1.28657 33.9637 2.56434 34.1954L4.07816 34.4695C2.8185 35.2893 2.62748 36.8751 3.77306 37.8318C4.06995 38.0797 4.42062 38.2554 4.79392 38.3598C4.59607 38.6722 4.49082 39.0221 4.49082 39.3856C4.49082 39.9725 4.76446 40.5243 5.26131 40.9393C5.75248 41.3495 6.40363 41.5771 7.09729 41.5824C7.10381 42.1379 7.35966 42.6917 7.86599 43.1145C8.69268 43.8051 9.94581 43.9465 10.9532 43.5048C11.2982 44.3805 12.3582 45 13.4474 45C14.121 45 14.795 44.7857 15.3079 44.3574L17.2513 42.7345C19.0656 43.1727 20.9497 43.3953 22.8594 43.3953C24.7692 43.3953 26.6533 43.1727 28.4675 42.7345L30.411 44.3574C31.4369 45.2141 33.106 45.2141 34.1318 44.3574C34.4237 44.1136 34.638 43.8223 34.7655 43.5047C35.7707 43.9457 37.027 43.804 37.8528 43.1143C38.3591 42.6915 38.6149 42.1377 38.6215 41.5822C39.3151 41.5769 39.9664 41.3493 40.4574 40.9391C41.2616 40.2674 41.4536 39.1921 40.9256 38.3607C41.3056 38.2541 41.654 38.0753 41.9457 37.8316C43.0803 36.8839 42.8785 35.27 41.6407 34.4693L43.1547 34.1953C44.4323 33.9635 45.3594 33.004 45.3594 31.9137C45.3595 30.6728 44.1462 29.6293 42.6932 29.5792ZM23.6488 4.46873C23.6488 2.73162 25.341 1.31839 27.4211 1.31839H28.5304V2.24478C28.5304 3.92898 26.9397 5.30863 24.947 5.39116L26.0915 4.54493C26.4179 4.30358 26.4482 3.88697 26.1592 3.61441C25.8702 3.34177 25.3714 3.31645 25.045 3.55781L23.6488 4.5902V4.46873ZM20.6994 5.23691C20.391 4.97947 19.8913 4.97947 19.5831 5.23691C19.2748 5.49435 19.2748 5.91175 19.5831 6.1691L20.9537 7.31373C18.8769 7.31039 17.1886 5.89865 17.1886 4.16356V3.23709H18.2979C20.3756 3.23709 22.0661 4.64706 22.07 6.38145L20.6994 5.23691ZM2.89912 32.9071C2.34227 32.8061 1.93803 32.3884 1.93803 31.9138C1.93803 31.2843 2.64895 30.7921 3.38587 30.9148C3.63119 31.682 3.94092 32.4336 4.31285 33.163L2.89912 32.9071ZM4.88928 36.8995C4.4844 36.5613 4.48251 35.9929 4.88938 35.6565C4.88938 35.6565 8.00607 33.0536 8.01491 33.0462C8.41957 32.7083 9.09776 32.7077 9.50327 33.0462C9.91361 33.3889 9.91361 33.9464 9.50337 34.2891L6.37763 36.8995C5.97434 37.2395 5.2931 37.2367 4.88928 36.8995ZM6.37774 40.007C5.96739 39.6643 5.96739 39.1067 6.37774 38.764L11.7359 34.2892C12.1381 33.9493 12.8207 33.949 13.2242 34.2892C13.6296 34.6245 13.6312 35.1959 13.2242 35.5322L7.86599 40.007C7.4628 40.347 6.78145 40.3441 6.37774 40.007ZM10.4708 42.1822C10.0604 42.5249 9.39276 42.525 8.98231 42.1822C8.57196 41.8396 8.57196 41.2819 8.98231 40.9392L14.3403 36.4645C14.7506 36.1219 15.4183 36.1218 15.8287 36.4645C16.2391 36.8072 16.2391 37.3648 15.8287 37.7075L10.4708 42.1822ZM17.3172 40.815L14.1916 43.4253C13.7813 43.7679 13.1138 43.768 12.7032 43.4253C12.2984 43.0874 12.2964 42.5191 12.703 42.1826L15.8288 39.5721C16.2311 39.2321 16.9117 39.2335 17.3172 39.5721C17.7275 39.9146 17.7275 40.4723 17.3172 40.815ZM18.4334 38.6397C18.1415 38.3959 17.7928 38.2171 17.4124 38.1105C17.9351 37.2811 17.7793 36.2291 16.9452 35.5324C16.4388 35.1095 15.7757 34.8958 15.1105 34.8904C15.1042 34.3112 14.8316 33.7673 14.3404 33.3571C13.8434 32.9421 13.1828 32.7136 12.48 32.7136C12.0448 32.7136 11.6258 32.8015 11.2518 32.9667C11.1268 32.6549 10.9164 32.362 10.6196 32.1141H10.6195C10.1225 31.6991 9.4618 31.4706 8.75898 31.4706C8.05616 31.4706 7.39544 31.6992 6.89848 32.1142L5.91498 32.9357C4.84076 30.9442 4.27644 28.7576 4.27644 26.5579C4.27644 23.3581 5.44244 20.3815 7.43786 17.9085C9.08492 18.8625 10.3123 20.129 10.777 21.3821C11.0738 22.1813 11.0127 22.8263 10.9282 23.7188C10.8247 24.8118 10.6958 26.1719 11.1914 28.3325C11.4326 29.3853 11.6908 30.0484 11.8887 30.5086C12.0377 30.8551 12.497 31.0265 12.8985 30.9061C13.3088 30.783 13.5219 30.4054 13.3744 30.0628C13.1958 29.6478 12.9626 29.0479 12.7418 28.0846C12.2862 26.0987 12.4008 24.8896 12.502 23.823C12.5929 22.8624 12.6715 22.0329 12.285 20.9918C11.7137 19.4514 10.3087 17.9702 8.37695 16.8463C10.849 14.2806 14.2758 12.3823 18.2033 11.533C18.6573 13.1316 19.0306 14.85 19.3434 16.5272C19.8481 19.2315 20.2466 21.3676 22.1843 21.8887C23.297 22.1881 24.2497 21.7381 25.0902 21.3414C25.8738 20.9715 26.614 20.6223 27.5118 20.7677C28.8821 20.9897 29.7787 22.8121 31.031 23.6717C32.8717 24.9353 35.5624 25.4373 38.256 25.2511C38.6905 25.2211 39.0134 24.9025 38.9774 24.5397C38.9413 24.1769 38.5574 23.9072 38.1256 23.9373C35.7236 24.1032 33.4466 23.6235 32.0333 22.6533C30.4655 21.577 30.1266 19.8486 27.8125 19.4735C26.3436 19.2354 25.218 19.7667 24.3135 20.1937C23.575 20.5422 23.1008 20.7502 22.6681 20.6339C21.6566 20.3617 21.2907 18.4006 20.9032 16.3242C20.5861 14.6252 20.2053 12.8774 19.7475 11.2585C20.7596 11.1154 21.799 11.0398 22.8592 11.0398C33.1059 11.0398 41.4421 18.0013 41.4421 26.5581C41.4421 28.7578 40.8778 30.9444 39.8036 32.9358L38.8201 32.1145C38.3231 31.6995 37.6624 31.4709 36.9596 31.4709C36.2567 31.4709 35.596 31.6995 35.0991 32.1144H35.099C34.8022 32.3623 34.5919 32.6552 34.4668 32.967C34.0665 32.79 33.6097 32.7019 33.1455 32.7157C31.3694 31.3706 27.7386 28.7552 25.146 29.7931C23.7825 30.3385 23.5744 31.4687 23.3333 32.7776C23.1596 33.721 22.9627 34.7904 22.3321 35.9894C21.6281 37.3288 20.5524 38.4835 19.066 39.4948C18.9416 39.1819 18.731 38.8881 18.4334 38.6397ZM27.2853 38.6397C26.2956 39.4664 26.2611 40.7928 27.1812 41.6546C25.773 41.9347 24.3246 42.0769 22.8594 42.0769C21.3942 42.0769 19.9459 41.9347 18.5377 41.6546C18.6721 41.5287 18.7858 41.3928 18.8794 41.2501C21.1865 39.9445 22.7914 38.3958 23.7779 36.5191C24.4918 35.1616 24.7148 33.9505 24.8939 32.9775C25.1116 31.7949 25.2425 31.2161 25.8284 30.9816C27.2787 30.4014 29.9433 32.1271 31.5029 33.2602C30.9376 33.6751 30.6148 34.2622 30.6082 34.8902C29.9431 34.8957 29.28 35.1093 28.7736 35.5323C27.9393 36.229 27.7837 37.2811 28.3063 38.1104C27.9261 38.2171 27.5774 38.3959 27.2853 38.6397ZM33.0156 43.4252C32.6053 43.7678 31.9376 43.7678 31.5273 43.4252L28.4017 40.8149C27.9913 40.4722 27.9913 39.9146 28.4017 39.5719H28.4016C28.8039 39.232 29.4864 39.2315 29.89 39.5719L33.0161 42.1826C33.4211 42.518 33.4203 43.0873 33.0156 43.4252ZM36.7365 42.1822C36.3263 42.525 35.6585 42.5249 35.2482 42.1822C34.3882 41.4642 30.7963 38.4641 29.8901 37.7075C29.4798 37.3648 29.4798 36.8072 29.8901 36.4645C30.3005 36.1218 30.9682 36.122 31.3785 36.4645L36.7365 40.9393C37.1469 41.282 37.1469 41.8396 36.7365 42.1822ZM39.3412 40.007C38.9361 40.3453 38.2547 40.3458 37.8529 40.007L32.4947 35.5322C32.0879 35.1958 32.0879 34.6257 32.4947 34.2893H32.4948C32.897 33.9493 33.5796 33.949 33.9831 34.2893C35.6667 35.7094 37.731 37.4195 39.3412 38.7641C39.7516 39.1067 39.7516 39.6643 39.3412 40.007ZM40.8295 36.8995C40.4192 37.2422 39.7516 37.2422 39.3412 36.8995L36.2155 34.2891C35.8052 33.9464 35.8052 33.3889 36.2156 33.0462H36.2155C36.6178 32.7063 37.2983 32.7075 37.7039 33.0462C38.3179 33.559 40.1789 35.1182 40.8296 35.6566C41.235 35.9919 41.2343 36.5614 40.8295 36.8995ZM42.8201 32.907L41.406 33.163C41.7779 32.4335 42.0877 31.6819 42.333 30.9148C43.0623 30.7921 43.7808 31.2843 43.7808 31.9137C43.7808 32.3884 43.3766 32.806 42.8201 32.907Z" fill="#77B80F"/>
</svg>
